<?xml version="1.0" encoding="UTF-8"?>
<svg xmlns="http://www.w3.org/2000/svg" xmlns:xlink="http://www.w3.org/1999/xlink" width="35px" height="25px" viewBox="0 0 35 25" version="1.1">
<g id="surface1">
<path style=" stroke:none;fill-rule:nonzero;fill:rgb(0%,0%,0%);fill-opacity:1;" d="M 31.773438 0 L 3.128906 0 C 3.003906 0 2.886719 0 2.765625 0 C 2.667969 0 2.566406 0.00390625 2.464844 0.0078125 C 2.246094 0.0117188 2.027344 0.0273438 1.808594 0.0703125 C 1.589844 0.113281 1.382812 0.1875 1.183594 0.300781 C 0.988281 0.410156 0.808594 0.558594 0.65625 0.730469 C 0.496094 0.90625 0.367188 1.105469 0.269531 1.328125 C 0.167969 1.550781 0.101562 1.777344 0.0625 2.023438 C 0.0234375 2.265625 0.0117188 2.515625 0.00390625 2.757812 C 0.00390625 2.871094 0 2.984375 0 3.09375 C 0 3.230469 0 3.363281 0 3.496094 L 0 21.496094 C 0 21.628906 0 21.761719 0 21.894531 C 0 22.007812 0.00390625 22.121094 0.00390625 22.234375 C 0.0117188 22.476562 0.0234375 22.726562 0.0625 22.96875 C 0.101562 23.214844 0.167969 23.441406 0.269531 23.664062 C 0.367188 23.886719 0.496094 24.085938 0.65625 24.257812 C 0.808594 24.433594 0.988281 24.578125 1.183594 24.691406 C 1.382812 24.804688 1.589844 24.878906 1.808594 24.921875 C 2.027344 24.964844 2.246094 24.980469 2.464844 24.984375 C 2.566406 24.988281 2.667969 24.988281 2.765625 24.992188 C 2.886719 24.992188 3.003906 24.992188 3.128906 24.992188 L 31.773438 24.992188 C 31.894531 24.992188 32.011719 24.992188 32.132812 24.992188 C 32.230469 24.988281 32.332031 24.988281 32.433594 24.984375 C 32.652344 24.980469 32.871094 24.964844 33.089844 24.921875 C 33.308594 24.878906 33.511719 24.804688 33.714844 24.691406 C 33.910156 24.578125 34.089844 24.433594 34.242188 24.257812 C 34.402344 24.085938 34.53125 23.886719 34.632812 23.664062 C 34.734375 23.441406 34.796875 23.214844 34.835938 22.96875 C 34.875 22.726562 34.886719 22.476562 34.894531 22.234375 C 34.894531 22.121094 34.898438 22.007812 34.898438 21.894531 C 34.898438 21.761719 34.898438 21.628906 34.898438 21.496094 L 34.898438 3.496094 C 34.898438 3.363281 34.898438 3.230469 34.898438 3.09375 C 34.898438 2.984375 34.894531 2.871094 34.894531 2.757812 C 34.886719 2.515625 34.875 2.265625 34.835938 2.023438 C 34.796875 1.777344 34.734375 1.550781 34.632812 1.328125 C 34.53125 1.105469 34.402344 0.90625 34.242188 0.730469 C 34.089844 0.558594 33.910156 0.410156 33.714844 0.300781 C 33.511719 0.1875 33.308594 0.113281 33.089844 0.0703125 C 32.871094 0.0273438 32.652344 0.0117188 32.433594 0.0078125 C 32.332031 0.00390625 32.230469 0 32.132812 0 C 32.011719 0 31.894531 0 31.773438 0 Z M 31.773438 0 "/>
<path style=" stroke:none;fill-rule:nonzero;fill:rgb(100%,100%,100%);fill-opacity:1;" d="M 31.773438 0.832031 L 32.125 0.832031 C 32.21875 0.835938 32.316406 0.835938 32.414062 0.839844 C 32.582031 0.84375 32.773438 0.855469 32.957031 0.890625 C 33.117188 0.921875 33.246094 0.96875 33.375 1.042969 C 33.503906 1.113281 33.617188 1.207031 33.71875 1.320312 C 33.820312 1.433594 33.902344 1.5625 33.964844 1.707031 C 34.03125 1.847656 34.074219 1.996094 34.101562 2.171875 C 34.132812 2.375 34.144531 2.59375 34.148438 2.78125 C 34.152344 2.886719 34.152344 2.992188 34.15625 3.101562 C 34.15625 3.234375 34.15625 3.363281 34.15625 3.496094 L 34.15625 21.496094 C 34.15625 21.628906 34.15625 21.757812 34.15625 21.890625 C 34.152344 22 34.152344 22.105469 34.148438 22.210938 C 34.144531 22.398438 34.132812 22.617188 34.101562 22.820312 C 34.074219 22.996094 34.03125 23.144531 33.964844 23.289062 C 33.902344 23.429688 33.820312 23.558594 33.71875 23.671875 C 33.617188 23.785156 33.503906 23.878906 33.375 23.949219 C 33.246094 24.023438 33.113281 24.070312 32.960938 24.101562 C 32.773438 24.136719 32.570312 24.148438 32.417969 24.152344 C 32.316406 24.15625 32.222656 24.15625 32.125 24.15625 C 32.007812 24.160156 31.890625 24.160156 31.773438 24.160156 L 3.128906 24.160156 C 3.125 24.160156 3.125 24.160156 3.121094 24.160156 C 3.003906 24.160156 2.886719 24.160156 2.769531 24.15625 C 2.675781 24.15625 2.582031 24.15625 2.484375 24.152344 C 2.328125 24.148438 2.125 24.136719 1.941406 24.101562 C 1.785156 24.070312 1.652344 24.023438 1.519531 23.949219 C 1.394531 23.875 1.28125 23.785156 1.179688 23.671875 C 1.078125 23.558594 0.996094 23.429688 0.933594 23.289062 C 0.867188 23.144531 0.824219 22.996094 0.796875 22.820312 C 0.765625 22.617188 0.753906 22.398438 0.75 22.210938 C 0.746094 22.105469 0.746094 21.996094 0.746094 21.890625 L 0.742188 21.578125 L 0.742188 3.414062 L 0.746094 3.101562 C 0.746094 2.996094 0.746094 2.886719 0.75 2.78125 C 0.753906 2.59375 0.765625 2.375 0.796875 2.171875 C 0.824219 1.996094 0.867188 1.847656 0.933594 1.703125 C 0.996094 1.5625 1.078125 1.433594 1.179688 1.320312 C 1.28125 1.207031 1.394531 1.113281 1.523438 1.042969 C 1.652344 0.96875 1.785156 0.921875 1.941406 0.890625 C 2.125 0.855469 2.316406 0.84375 2.484375 0.839844 C 2.582031 0.835938 2.679688 0.835938 2.773438 0.832031 L 31.773438 0.832031 "/>
<path style=" stroke:none;fill-rule:nonzero;fill:rgb(0%,0%,0%);fill-opacity:1;" d="M 9.527344 8.40625 C 9.828125 7.988281 10.03125 7.425781 9.976562 6.851562 C 9.539062 6.878906 9.003906 7.175781 8.695312 7.59375 C 8.417969 7.953125 8.171875 8.535156 8.234375 9.085938 C 8.726562 9.132812 9.214844 8.8125 9.527344 8.40625 "/>
<path style=" stroke:none;fill-rule:nonzero;fill:rgb(0%,0%,0%);fill-opacity:1;" d="M 9.96875 9.195312 C 9.257812 9.144531 8.652344 9.648438 8.308594 9.648438 C 7.96875 9.648438 7.445312 9.21875 6.886719 9.230469 C 6.148438 9.242188 5.46875 9.707031 5.097656 10.445312 C 4.328125 11.921875 4.894531 14.113281 5.636719 15.316406 C 6 15.910156 6.4375 16.566406 7.011719 16.542969 C 7.554688 16.519531 7.769531 16.148438 8.425781 16.148438 C 9.085938 16.148438 9.28125 16.542969 9.855469 16.53125 C 10.449219 16.519531 10.820312 15.9375 11.183594 15.339844 C 11.597656 14.660156 11.769531 14.007812 11.777344 13.96875 C 11.769531 13.957031 10.628906 13.46875 10.617188 12.003906 C 10.609375 10.777344 11.511719 10.195312 11.554688 10.160156 C 11.046875 9.3125 10.246094 9.21875 9.96875 9.195312 "/>
<path style=" stroke:none;fill-rule:nonzero;fill:rgb(0%,0%,0%);fill-opacity:1;" d="M 16.179688 7.535156 C 17.726562 7.535156 18.808594 8.730469 18.808594 10.46875 C 18.808594 12.214844 17.707031 13.417969 16.140625 13.417969 L 14.425781 13.417969 L 14.425781 16.46875 L 13.183594 16.46875 L 13.183594 7.535156 Z M 14.425781 12.253906 L 15.84375 12.253906 C 16.925781 12.253906 17.542969 11.601562 17.542969 10.476562 C 17.542969 9.347656 16.925781 8.703125 15.851562 8.703125 L 14.425781 8.703125 Z M 14.425781 12.253906 "/>
<path style=" stroke:none;fill-rule:nonzero;fill:rgb(0%,0%,0%);fill-opacity:1;" d="M 19.132812 14.617188 C 19.132812 13.476562 19.910156 12.777344 21.296875 12.691406 L 22.890625 12.585938 L 22.890625 12.085938 C 22.890625 11.359375 22.453125 10.925781 21.722656 10.925781 C 21.03125 10.925781 20.597656 11.296875 20.492188 11.878906 L 19.363281 11.878906 C 19.429688 10.703125 20.328125 9.835938 21.765625 9.835938 C 23.179688 9.835938 24.078125 10.671875 24.078125 11.980469 L 24.078125 16.46875 L 22.933594 16.46875 L 22.933594 15.398438 L 22.90625 15.398438 C 22.570312 16.121094 21.832031 16.582031 21.070312 16.582031 C 19.929688 16.582031 19.132812 15.789062 19.132812 14.617188 Z M 22.890625 14.03125 L 22.890625 13.515625 L 21.457031 13.613281 C 20.742188 13.671875 20.339844 14.023438 20.339844 14.582031 C 20.339844 15.148438 20.761719 15.523438 21.402344 15.523438 C 22.234375 15.523438 22.890625 14.878906 22.890625 14.03125 Z M 22.890625 14.03125 "/>
<path style=" stroke:none;fill-rule:nonzero;fill:rgb(0%,0%,0%);fill-opacity:1;" d="M 25.164062 18.867188 L 25.164062 17.78125 C 25.25 17.804688 25.449219 17.804688 25.550781 17.804688 C 26.101562 17.804688 26.402344 17.546875 26.585938 16.878906 C 26.585938 16.867188 26.691406 16.480469 26.691406 16.476562 L 24.589844 9.953125 L 25.882812 9.953125 L 27.355469 15.253906 L 27.375 15.253906 L 28.847656 9.953125 L 30.109375 9.953125 L 27.929688 16.808594 C 27.429688 18.386719 26.855469 18.894531 25.652344 18.894531 C 25.550781 18.894531 25.25 18.882812 25.164062 18.867188 Z M 25.164062 18.867188 "/>
</g>
</svg>
