<?xml version="1.0" encoding="UTF-8"?>
<svg xmlns="http://www.w3.org/2000/svg" xmlns:xlink="http://www.w3.org/1999/xlink" width="35px" height="25px" viewBox="0 0 35 25" version="1.1">
<defs>
<linearGradient id="linear0" gradientUnits="userSpaceOnUse" x1="119.411797" y1="502" x2="880.588318" y2="502" gradientTransform="matrix(0.035,0,0,-0.025,0,25.05)">
<stop offset="0" style="stop-color:rgb(23.137255%,100%,61.568627%);stop-opacity:1;"/>
<stop offset="1" style="stop-color:rgb(23.137255%,100%,78.431373%);stop-opacity:1;"/>
</linearGradient>
</defs>
<g id="surface1">
<path style=" stroke:none;fill-rule:nonzero;fill:url(#linear0);" d="M 28.757812 16.289062 L 6.242188 16.289062 C 5.105469 16.289062 4.179688 15.628906 4.179688 14.8125 L 4.179688 10.183594 C 4.179688 9.371094 5.105469 8.710938 6.242188 8.710938 L 28.757812 8.710938 C 29.898438 8.710938 30.820312 9.371094 30.820312 10.183594 L 30.820312 14.816406 C 30.820312 15.628906 29.894531 16.289062 28.757812 16.289062 Z M 28.757812 16.289062 "/>
<path style=" stroke:none;fill-rule:nonzero;fill:rgb(16.078432%,16.078432%,16.078432%);fill-opacity:1;" d="M 27.234375 11.113281 L 25.8125 15 L 25.804688 15.007812 L 26.917969 15.007812 L 28.347656 11.113281 Z M 27.234375 11.113281 "/>
<path style=" stroke:none;fill-rule:nonzero;fill:rgb(16.078432%,16.078432%,16.078432%);fill-opacity:1;" d="M 9.605469 13.324219 C 9.457031 13.378906 9.257812 13.414062 9.066406 13.414062 C 8.667969 13.414062 8.441406 13.367188 8.417969 13.136719 L 8.417969 13.121094 C 8.417969 13.113281 8.414062 13.101562 8.414062 13.09375 L 8.414062 12.421875 L 8.417969 12.34375 L 8.417969 11.867188 L 8.414062 11.867188 L 8.414062 11.667969 L 8.417969 11.585938 L 8.417969 11.128906 L 7.425781 11.222656 C 8.097656 11.128906 8.480469 10.75 8.480469 10.375 L 8.480469 10.140625 L 7.367188 10.140625 L 7.367188 11.230469 L 7.304688 11.242188 L 7.304688 13.257812 C 7.339844 13.820312 7.863281 14.160156 8.71875 14.160156 C 9.023438 14.160156 9.355469 14.109375 9.613281 14.027344 L 9.617188 14.027344 L 9.617188 13.320312 Z M 9.605469 13.324219 "/>
<path style=" stroke:none;fill-rule:nonzero;fill:rgb(16.078432%,16.078432%,16.078432%);fill-opacity:1;" d="M 9.78125 10.96875 L 6.652344 11.3125 L 6.652344 11.878906 L 9.78125 11.535156 Z M 9.78125 10.96875 "/>
<path style=" stroke:none;fill-rule:nonzero;fill:rgb(16.078432%,16.078432%,16.078432%);fill-opacity:1;" d="M 9.78125 11.796875 L 6.652344 12.140625 L 6.652344 12.683594 L 9.78125 12.335938 Z M 9.78125 11.796875 "/>
<path style=" stroke:none;fill-rule:nonzero;fill:rgb(16.078432%,16.078432%,16.078432%);fill-opacity:1;" d="M 13.285156 12.058594 C 13.242188 11.429688 12.691406 11.054688 11.796875 11.054688 C 11.28125 11.054688 10.855469 11.199219 10.566406 11.46875 C 10.277344 11.734375 10.125 12.128906 10.125 12.609375 C 10.125 13.085938 10.277344 13.480469 10.566406 13.746094 C 10.855469 14.015625 11.28125 14.160156 11.796875 14.160156 C 12.691406 14.160156 13.242188 13.785156 13.285156 13.152344 L 13.285156 14.101562 L 14.398438 14.101562 L 14.398438 11.121094 L 13.285156 11.242188 M 13.34375 12.609375 C 13.34375 13.164062 12.933594 13.523438 12.300781 13.523438 C 11.648438 13.523438 11.257812 13.183594 11.257812 12.609375 C 11.257812 12.03125 11.648438 11.683594 12.300781 11.683594 C 12.617188 11.683594 12.886719 11.773438 13.070312 11.9375 C 13.25 12.105469 13.34375 12.335938 13.34375 12.609375 Z M 13.34375 12.609375 "/>
<path style=" stroke:none;fill-rule:nonzero;fill:rgb(16.078432%,16.078432%,16.078432%);fill-opacity:1;" d="M 17.648438 11.054688 C 16.75 11.054688 16.203125 11.429688 16.160156 12.058594 L 16.160156 10.253906 L 15.042969 10.375 L 15.042969 14.101562 L 16.160156 14.101562 L 16.160156 13.152344 C 16.203125 13.785156 16.753906 14.160156 17.648438 14.160156 C 18.699219 14.160156 19.328125 13.578125 19.328125 12.609375 C 19.328125 11.636719 18.699219 11.054688 17.648438 11.054688 Z M 17.144531 13.523438 C 16.507812 13.523438 16.101562 13.164062 16.101562 12.609375 C 16.101562 12.335938 16.195312 12.105469 16.375 11.941406 C 16.558594 11.773438 16.824219 11.6875 17.144531 11.6875 C 17.796875 11.6875 18.183594 12.03125 18.183594 12.609375 C 18.183594 13.183594 17.796875 13.523438 17.144531 13.523438 Z M 17.144531 13.523438 "/>
<path style=" stroke:none;fill-rule:nonzero;fill:rgb(16.078432%,16.078432%,16.078432%);fill-opacity:1;" d="M 22.355469 11.054688 C 21.457031 11.054688 20.910156 11.429688 20.867188 12.058594 L 20.867188 10.253906 L 19.753906 10.375 L 19.753906 14.101562 L 20.867188 14.101562 L 20.867188 13.152344 C 20.910156 13.785156 21.460938 14.160156 22.355469 14.160156 C 23.40625 14.160156 24.035156 13.578125 24.035156 12.609375 C 24.035156 11.636719 23.40625 11.054688 22.355469 11.054688 Z M 21.851562 13.523438 C 21.21875 13.523438 20.8125 13.164062 20.8125 12.609375 C 20.8125 12.335938 20.90625 12.105469 21.085938 11.941406 C 21.269531 11.773438 21.535156 11.6875 21.851562 11.6875 C 22.507812 11.6875 22.894531 12.03125 22.894531 12.609375 C 22.894531 13.183594 22.507812 13.523438 21.851562 13.523438 Z M 21.851562 13.523438 "/>
<path style=" stroke:none;fill-rule:nonzero;fill:rgb(16.078432%,16.078432%,16.078432%);fill-opacity:1;" d="M 24.035156 11.113281 L 25.226562 11.113281 L 26.191406 14.097656 L 25.125 14.097656 Z M 24.035156 11.113281 "/>
</g>
</svg>
