<?xml version="1.0" encoding="UTF-8"?>
<svg xmlns="http://www.w3.org/2000/svg" xmlns:xlink="http://www.w3.org/1999/xlink" width="35px" height="25px" viewBox="0 0 35 25" version="1.1">
<g id="surface1">
<path style=" stroke:none;fill-rule:nonzero;fill:rgb(51.764709%,71.764708%,25.098041%);fill-opacity:1;" d="M 3.644531 13.023438 L 15.429688 13.023438 L 15.429688 15.828125 L 3.644531 15.828125 Z M 3.644531 13.023438 "/>
<path style=" stroke:none;fill-rule:nonzero;fill:rgb(14.509805%,60.784316%,83.92157%);fill-opacity:1;" d="M 3.644531 9.195312 L 15.429688 9.195312 L 15.429688 12.003906 L 3.644531 12.003906 Z M 3.644531 9.195312 "/>
<path style=" stroke:none;fill-rule:nonzero;fill:rgb(15.294118%,16.078432%,17.647059%);fill-opacity:1;" d="M 27.21875 15.257812 L 27.167969 15.265625 C 26.984375 15.289062 26.917969 15.300781 26.785156 15.300781 C 26.476562 15.300781 26.113281 15.1875 26.113281 14.65625 C 26.113281 14.386719 26.175781 14.023438 26.75 14.023438 L 26.753906 14.023438 C 26.851562 14.027344 26.964844 14.035156 27.175781 14.078125 L 27.21875 14.089844 Z M 27.3125 12.613281 L 27.21875 12.628906 L 27.21875 13.609375 L 27.136719 13.589844 L 27.109375 13.585938 C 27.015625 13.566406 26.800781 13.519531 26.589844 13.519531 C 25.441406 13.519531 25.199219 14.140625 25.199219 14.660156 C 25.199219 15.371094 25.761719 15.78125 26.738281 15.78125 C 27.148438 15.78125 27.453125 15.753906 27.761719 15.679688 C 28.046875 15.613281 28.148438 15.523438 28.148438 15.324219 L 28.148438 12.511719 C 27.875 12.546875 27.589844 12.582031 27.3125 12.613281 "/>
<path style=" stroke:none;fill-rule:nonzero;fill:rgb(15.294118%,16.078432%,17.647059%);fill-opacity:1;" d="M 30.632812 15.273438 L 30.582031 15.285156 L 30.40625 15.316406 C 30.242188 15.347656 30.097656 15.363281 29.984375 15.363281 C 29.714844 15.363281 29.554688 15.269531 29.554688 15.109375 C 29.554688 15.003906 29.621094 14.824219 30.0625 14.824219 L 30.632812 14.824219 Z M 30.230469 13.507812 C 29.875 13.507812 29.511719 13.550781 29.058594 13.652344 L 28.765625 13.714844 L 28.863281 14.191406 L 29.152344 14.121094 C 29.453125 14.050781 29.828125 14.007812 30.105469 14.007812 C 30.234375 14.007812 30.617188 14.007812 30.617188 14.304688 L 30.617188 14.433594 L 30.082031 14.433594 C 29.105469 14.433594 28.65625 14.65625 28.65625 15.136719 C 28.65625 15.542969 29.070312 15.789062 29.769531 15.789062 C 29.988281 15.789062 30.289062 15.757812 30.546875 15.710938 L 30.574219 15.710938 L 30.664062 15.722656 C 30.9375 15.757812 31.21875 15.792969 31.496094 15.828125 L 31.496094 14.269531 C 31.496094 13.765625 31.070312 13.507812 30.230469 13.507812 "/>
<path style=" stroke:none;fill-rule:nonzero;fill:rgb(15.294118%,16.078432%,17.647059%);fill-opacity:1;" d="M 23.832031 15.273438 L 23.78125 15.285156 L 23.609375 15.316406 C 23.441406 15.347656 23.300781 15.363281 23.183594 15.363281 C 22.914062 15.363281 22.753906 15.269531 22.753906 15.109375 C 22.753906 15.003906 22.820312 14.824219 23.257812 14.824219 L 23.828125 14.824219 L 23.828125 15.273438 Z M 23.433594 13.507812 C 23.074219 13.507812 22.714844 13.550781 22.261719 13.652344 L 21.96875 13.714844 L 22.066406 14.191406 L 22.355469 14.121094 C 22.65625 14.050781 23.03125 14.007812 23.308594 14.007812 C 23.4375 14.007812 23.820312 14.007812 23.820312 14.304688 L 23.820312 14.433594 L 23.285156 14.433594 C 22.308594 14.433594 21.855469 14.65625 21.855469 15.136719 C 21.855469 15.542969 22.269531 15.789062 22.972656 15.789062 C 23.191406 15.789062 23.492188 15.757812 23.75 15.710938 L 23.777344 15.710938 L 23.863281 15.722656 C 24.140625 15.757812 24.417969 15.792969 24.695312 15.832031 L 24.695312 14.273438 C 24.699219 13.761719 24.273438 13.507812 23.433594 13.507812 "/>
<path style=" stroke:none;fill-rule:nonzero;fill:rgb(15.294118%,16.078432%,17.647059%);fill-opacity:1;" d="M 20.144531 13.511719 C 19.703125 13.511719 19.335938 13.617188 19.199219 13.664062 L 19.164062 13.675781 L 19.132812 13.65625 C 18.941406 13.558594 18.664062 13.511719 18.28125 13.511719 C 17.941406 13.511719 17.621094 13.546875 17.277344 13.617188 C 16.976562 13.683594 16.863281 13.785156 16.863281 13.976562 L 16.863281 15.761719 L 17.792969 15.761719 L 17.792969 14.113281 L 17.839844 14.101562 C 18.027344 14.058594 18.140625 14.050781 18.25 14.050781 C 18.519531 14.050781 18.65625 14.152344 18.65625 14.351562 L 18.65625 15.761719 L 19.570312 15.761719 L 19.570312 14.324219 C 19.570312 14.238281 19.546875 14.191406 19.542969 14.179688 L 19.511719 14.136719 L 19.574219 14.117188 C 19.714844 14.074219 19.871094 14.050781 20.03125 14.050781 C 20.214844 14.050781 20.4375 14.101562 20.4375 14.351562 L 20.4375 15.761719 L 21.351562 15.761719 L 21.351562 14.289062 C 21.351562 13.765625 20.957031 13.511719 20.144531 13.511719 "/>
<path style=" stroke:none;fill-rule:nonzero;fill:rgb(15.294118%,16.078432%,17.647059%);fill-opacity:1;" d="M 29.945312 11.023438 C 29.808594 11.023438 29.582031 11.015625 29.402344 10.988281 L 29.351562 10.984375 L 29.351562 10.019531 C 29.351562 9.941406 29.328125 9.890625 29.328125 9.882812 L 29.296875 9.84375 L 29.359375 9.824219 C 29.371094 9.820312 29.386719 9.816406 29.402344 9.8125 L 29.414062 9.808594 C 29.433594 9.800781 29.457031 9.796875 29.476562 9.792969 C 29.488281 9.789062 29.496094 9.789062 29.5 9.789062 C 29.707031 9.746094 29.898438 9.753906 29.980469 9.746094 L 29.984375 9.746094 C 30.554688 9.746094 30.621094 10.109375 30.621094 10.382812 C 30.617188 10.914062 30.25 11.023438 29.945312 11.023438 M 29.941406 9.195312 C 29.933594 9.195312 29.925781 9.195312 29.917969 9.195312 C 29.382812 9.195312 28.832031 9.300781 28.636719 9.503906 C 28.53125 9.605469 28.472656 9.730469 28.46875 9.878906 L 28.46875 10.871094 C 28.46875 10.953125 28.445312 10.988281 28.441406 10.996094 L 28.410156 11.039062 L 26.71875 11.039062 L 26.71875 10.347656 L 26.714844 10.347656 C 26.695312 9.621094 26.09375 9.21875 25.222656 9.21875 L 24.371094 9.21875 C 24.335938 9.398438 24.308594 9.523438 24.273438 9.699219 L 25.121094 9.699219 C 25.5625 9.699219 25.796875 9.96875 25.796875 10.386719 L 25.796875 11.078125 L 25.738281 11.058594 C 25.726562 11.054688 25.65625 11.039062 25.539062 11.039062 L 24.078125 11.039062 C 24.046875 11.171875 24.011719 11.34375 23.976562 11.515625 L 28.472656 11.515625 C 28.625 11.492188 28.804688 11.472656 28.960938 11.453125 C 29.1875 11.535156 29.609375 11.578125 29.902344 11.578125 C 30.878906 11.578125 31.511719 11.109375 31.511719 10.390625 C 31.507812 9.675781 30.894531 9.210938 29.941406 9.195312 "/>
<path style=" stroke:none;fill-rule:nonzero;fill:rgb(15.294118%,16.078432%,17.647059%);fill-opacity:1;" d="M 22.058594 11.808594 L 22.097656 11.808594 C 23.074219 11.808594 23.53125 11.578125 23.53125 11.011719 C 23.53125 10.601562 23.113281 10.277344 22.414062 10.277344 L 21.515625 10.277344 C 21.246094 10.277344 21.085938 10.167969 21.085938 9.984375 C 21.085938 9.859375 21.152344 9.703125 21.589844 9.703125 L 23.558594 9.703125 C 23.601562 9.519531 23.621094 9.40625 23.660156 9.222656 L 21.617188 9.222656 C 20.664062 9.222656 20.183594 9.507812 20.183594 9.984375 C 20.183594 10.453125 20.601562 10.699219 21.300781 10.699219 L 22.199219 10.699219 C 22.46875 10.699219 22.632812 10.851562 22.632812 11.011719 C 22.632812 11.113281 22.566406 11.332031 22.128906 11.332031 L 21.976562 11.332031 L 19.097656 11.328125 L 18.570312 11.328125 C 18.125 11.328125 17.816406 11.148438 17.816406 10.730469 L 17.816406 10.441406 C 17.816406 10.007812 18.054688 9.738281 18.570312 9.738281 L 19.425781 9.738281 C 19.464844 9.550781 19.488281 9.433594 19.523438 9.261719 L 18.359375 9.261719 C 17.484375 9.261719 16.882812 9.675781 16.863281 10.40625 L 16.863281 10.730469 C 16.882812 11.457031 17.484375 11.804688 18.359375 11.804688 L 19.207031 11.804688 L 20.769531 11.808594 Z M 22.058594 11.808594 "/>
</g>
</svg>
