<?xml version="1.0" encoding="utf-8"?>
<!-- Generator: Adobe Adobe Illustrator 24.2.0, SVG Export Plug-In . SVG Version: 6.00 Build 0)  -->
<svg version="1.1" id="Layer_1" xmlns="http://www.w3.org/2000/svg" xmlns:xlink="http://www.w3.org/1999/xlink" x="0px" y="0px"
	 width="178px" height="36px" viewBox="0 0 178 36" style="enable-background:new 0 0 178 36;" xml:space="preserve">
<style type="text/css">
	.st0{display:none;clip-path:url(#SVGID_2_);fill:#793D8B;}
	.st1{clip-path:url(#SVGID_2_);}
	.st2{clip-path:url(#SVGID_4_);fill:#FBF7F5;}
</style>
<g>
	<g>
		<defs>
			<rect id="SVGID_1_" y="-29.5" width="178" height="95"/>
		</defs>
		<clipPath id="SVGID_2_">
			<use xlink:href="#SVGID_1_"  style="overflow:visible;"/>
		</clipPath>
		<rect y="-29.5" class="st0" width="178" height="95"/>
		<g class="st1">
			<defs>
				<rect id="SVGID_3_" y="-29.5" width="178" height="95"/>
			</defs>
			<clipPath id="SVGID_4_">
				<use xlink:href="#SVGID_3_"  style="overflow:visible;"/>
			</clipPath>
			<path class="st2" d="M67.46,7.41c0,0.39,0.59,0.7,1.32,0.7s1.32-0.32,1.32-0.7c0-0.39-0.59-0.7-1.32-0.7S67.46,7.02,67.46,7.41"
				/>
			<path class="st2" d="M70.1,6c0,0.39,0.59,0.71,1.32,0.71c0.73,0,1.32-0.32,1.32-0.71c0-0.39-0.59-0.7-1.32-0.7
				C70.69,5.3,70.1,5.61,70.1,6"/>
			<path class="st2" d="M72.74,4.87c0,0.39,0.59,0.7,1.32,0.7s1.32-0.32,1.32-0.7c0-0.39-0.59-0.71-1.32-0.71S72.74,4.48,72.74,4.87
				"/>
			<path class="st2" d="M75.38,3.92c0,0.39,0.59,0.7,1.32,0.7c0.73,0,1.32-0.32,1.32-0.7s-0.59-0.71-1.32-0.71
				C75.97,3.21,75.38,3.53,75.38,3.92"/>
			<path class="st2" d="M78.61,3.05c0,0.39,0.59,0.7,1.32,0.7s1.32-0.32,1.32-0.7s-0.59-0.7-1.32-0.7S78.61,2.66,78.61,3.05"/>
			<path class="st2" d="M81.85,2.51c0,0.39,0.59,0.7,1.32,0.7s1.32-0.32,1.32-0.7s-0.59-0.7-1.32-0.7S81.85,2.12,81.85,2.51"/>
			<path class="st2" d="M85.18,2c0,0.39,0.59,0.71,1.32,0.71c0.73,0,1.32-0.32,1.32-0.71s-0.59-0.7-1.32-0.7
				C85.77,1.29,85.18,1.61,85.18,2"/>
			<path class="st2" d="M88.55,1.64c0,0.39,0.59,0.71,1.32,0.71s1.32-0.32,1.32-0.71s-0.59-0.7-1.32-0.7S88.55,1.25,88.55,1.64"/>
			<path class="st2" d="M92.04,1.4c0,0.39,0.59,0.7,1.32,0.7c0.73,0,1.32-0.32,1.32-0.7s-0.59-0.7-1.32-0.7
				C92.64,0.7,92.04,1.01,92.04,1.4"/>
			<path class="st2" d="M95.08,1.4c0,0.39,0.59,0.7,1.32,0.7c0.73,0,1.32-0.32,1.32-0.7s-0.59-0.7-1.32-0.7
				C95.67,0.7,95.08,1.01,95.08,1.4"/>
			<path class="st2" d="M98.33,1.64c0,0.39,0.59,0.71,1.32,0.71c0.73,0,1.32-0.32,1.32-0.71s-0.59-0.7-1.32-0.7
				C98.93,0.93,98.33,1.25,98.33,1.64"/>
			<path class="st2" d="M101.95,1.9c0,0.39,0.59,0.7,1.32,0.7c0.73,0,1.32-0.32,1.32-0.7s-0.59-0.7-1.32-0.7
				C102.54,1.19,101.95,1.51,101.95,1.9"/>
			<path class="st2" d="M105.28,2.34c0,0.39,0.59,0.7,1.32,0.7c0.73,0,1.32-0.32,1.32-0.7s-0.59-0.71-1.32-0.71
				C105.87,1.64,105.28,1.95,105.28,2.34"/>
			<path class="st2" d="M108.25,3.05c0,0.39,0.59,0.7,1.32,0.7c0.73,0,1.32-0.32,1.32-0.7s-0.59-0.7-1.32-0.7
				C108.84,2.34,108.25,2.66,108.25,3.05"/>
			<path class="st2" d="M111.5,3.89c0,0.39,0.59,0.7,1.32,0.7c0.73,0,1.32-0.32,1.32-0.7s-0.59-0.7-1.32-0.7
				C112.09,3.19,111.5,3.5,111.5,3.89"/>
			<path class="st2" d="M114.47,4.93c0,0.39,0.59,0.7,1.32,0.7c0.73,0,1.32-0.32,1.32-0.7c0-0.39-0.59-0.7-1.32-0.7
				C115.06,4.23,114.47,4.54,114.47,4.93"/>
			<path class="st2" d="M117.44,5.97c0,0.39,0.59,0.7,1.32,0.7c0.73,0,1.32-0.32,1.32-0.7c0-0.39-0.59-0.7-1.32-0.7
				C118.03,5.27,117.44,5.58,117.44,5.97"/>
			<path class="st2" d="M120.08,7.38c0,0.39,0.59,0.71,1.32,0.71c0.73,0,1.32-0.32,1.32-0.71c0-0.39-0.59-0.7-1.32-0.7
				C120.67,6.68,120.08,6.99,120.08,7.38"/>
			<path class="st2" d="M122.43,8.9c0,0.39,0.59,0.7,1.32,0.7c0.73,0,1.32-0.32,1.32-0.7c0-0.39-0.59-0.7-1.32-0.7
				C123.03,8.2,122.43,8.51,122.43,8.9"/>
			<path class="st2" d="M124.39,10.42c0,0.39,0.59,0.7,1.32,0.7c0.73,0,1.32-0.32,1.32-0.7s-0.59-0.7-1.32-0.7
				C124.98,9.71,124.39,10.03,124.39,10.42"/>
			<path class="st2" d="M126.34,11.94c0,0.39,0.59,0.7,1.32,0.7s1.32-0.32,1.32-0.7s-0.59-0.7-1.32-0.7S126.34,11.55,126.34,11.94"
				/>
			<path class="st2" d="M127.66,13.65c0,0.39,0.59,0.71,1.32,0.71c0.73,0,1.32-0.32,1.32-0.71c0-0.39-0.59-0.7-1.32-0.7
				C128.25,12.95,127.66,13.26,127.66,13.65"/>
			<path class="st2" d="M128.98,15.36c0,0.39,0.59,0.7,1.32,0.7c0.73,0,1.32-0.32,1.32-0.7c0-0.39-0.59-0.7-1.32-0.7
				C129.57,14.66,128.98,14.97,128.98,15.36"/>
			<path class="st2" d="M129.71,17.08c0,0.39,0.59,0.71,1.32,0.71c0.73,0,1.32-0.32,1.32-0.71s-0.59-0.7-1.32-0.7
				C130.3,16.37,129.71,16.69,129.71,17.08"/>
			<path class="st2" d="M130.3,18.86c0,0.39,0.59,0.71,1.32,0.71c0.73,0,1.32-0.32,1.32-0.71c0-0.39-0.59-0.7-1.32-0.7
				C130.89,18.15,130.3,18.47,130.3,18.86"/>
			<path class="st2" d="M130.66,20.66c0,0.39,0.59,0.71,1.32,0.71c0.73,0,1.32-0.32,1.32-0.71c0-0.39-0.59-0.71-1.32-0.71
				C131.26,19.95,130.66,20.27,130.66,20.66"/>
			<path class="st2" d="M130.66,22.54c0,0.39,0.59,0.7,1.32,0.7c0.73,0,1.32-0.32,1.32-0.7c0-0.39-0.59-0.71-1.32-0.71
				C131.26,21.84,130.66,22.15,130.66,22.54"/>
			<path class="st2" d="M67.63,11.44c0.65,0,1.21-0.12,1.68-0.35c0.49-0.24,0.73-0.54,0.73-0.89c0-0.35-0.24-0.65-0.73-0.91
				c-0.49-0.25-1.05-0.38-1.68-0.38c-0.65,0-1.22,0.13-1.71,0.38c-0.49,0.25-0.73,0.56-0.73,0.91c0,0.35,0.24,0.64,0.73,0.89
				C66.41,11.32,66.98,11.44,67.63,11.44"/>
			<path class="st2" d="M111.92,34.43c-1.8-0.98-2.7-2.29-2.7-3.92c0-1.64,0.9-2.97,2.7-3.97c1.73-0.98,3.97-1.47,6.7-1.47
				c2.73,0,4.97,0.49,6.72,1.47c1.8,1.01,2.7,2.33,2.7,3.97c0,1.63-0.9,2.93-2.7,3.92c-1.73,0.95-3.97,1.43-6.72,1.43
				C115.88,35.86,113.65,35.39,111.92,34.43 M122.4,33.22c0.93-0.63,1.39-1.53,1.39-2.71c0-1.2-0.46-2.12-1.39-2.76
				c-0.91-0.63-2.18-0.94-3.79-0.94c-1.58,0-2.83,0.31-3.74,0.94c-0.96,0.65-1.44,1.57-1.44,2.76c0,1.17,0.48,2.07,1.44,2.7
				c0.9,0.61,2.15,0.91,3.74,0.91C120.24,34.12,121.5,33.82,122.4,33.22"/>
			<polygon class="st2" points="39.64,22.81 39.64,8.75 56.03,8.75 56.03,10.62 44.05,10.62 44.05,15.03 53.14,15.03 53.14,16.84 
				44.05,16.84 44.05,22.81 			"/>
			<path class="st2" d="M58.13,22.99h4.2v-4.82l-4.2,1.68V22.99z M61.97,9.29c-0.22-0.18-0.73-0.27-1.54-0.27h-2.31v9.7
				c0.94-0.56,2.18-1.28,3.59-2.08l0.04-1.51c0.01-0.23,0.09-0.46,0.24-0.68c0.09-0.13,0.19-0.25,0.3-0.37
				c0.01-0.01,0.02-0.02,0.03-0.03v-3.59C62.33,9.86,62.21,9.46,61.97,9.29"/>
			<polygon class="st2" points="65.51,22.87 69.67,22.87 69.67,19.79 65.51,18.12 			"/>
			<path class="st2" d="M67.82,12.36h-2.31v1.54c0.06,0.06,0.12,0.12,0.17,0.18c0.11,0.12,0.21,0.25,0.3,0.37
				c0.15,0.22,0.24,0.45,0.24,0.68l0.04,1.51c1.31,0.75,2.49,1.43,3.4,1.97v-4.59c0-0.71-0.11-1.16-0.33-1.37
				C69.13,12.46,68.62,12.36,67.82,12.36"/>
			<path class="st2" d="M88.98,22.66c0,1.21-0.83,2.15-2.47,2.81c-1.6,0.64-3.79,0.95-6.57,0.95c-3.08,0-5.62-0.3-7.63-0.9v-1.69
				h1.48c1.4,0.58,3.27,0.88,5.6,0.88c3.63,0,5.45-0.73,5.45-2.19v-0.84c-1.66,0.78-3.57,1.18-5.72,1.18
				c-2.21,0-3.99-0.38-5.35-1.14c-1.58-0.87-2.37-2.15-2.37-3.83c0-1.83,0.87-3.22,2.6-4.19c1.48-0.82,3.38-1.23,5.7-1.23
				c2.23,0,4.06,0.34,5.47,1.01c0.37-0.58,1.01-0.87,1.89-0.87h1.93V22.66z M84.82,19.99v-4.85c-1.14-0.56-2.54-0.84-4.22-0.84
				c-3.34,0-5.01,1.15-5.01,3.44c0,2.29,1.5,3.44,4.49,3.44C81.73,21.18,83.31,20.78,84.82,19.99"/>
			<path class="st2" d="M95.64,13.74c2.27-0.89,4.66-1.33,7.16-1.33c3.41,0,5.12,0.98,5.12,2.94v7.72h-4.16v-7.24
				c0-0.58-0.23-0.98-0.69-1.21c-0.42-0.21-1.09-0.31-2.02-0.31c-1.58,0-3.38,0.32-5.41,0.97v7.79h-4.18V9.09h2.29
				c0.8,0,1.32,0.08,1.54,0.24c0.24,0.18,0.35,0.58,0.35,1.2V13.74z"/>
			<path class="st2" d="M109.44,12.55h2.31V9.76h4.16v2.79h4.28v1.64h-4.28v5.98c0,0.49,0.21,0.83,0.62,1.03
				c0.39,0.18,1.03,0.27,1.93,0.27h1.93v1.5c-1.11,0.15-2.2,0.22-3.27,0.22c-3.59,0-5.39-0.93-5.39-2.78v-6.23h-2.31V12.55z"/>
			<path class="st2" d="M132.77,25.35c0.53,0,0.91,0.08,1.14,0.23c0.26,0.18,0.42,0.5,0.48,0.97c2.27-0.9,4.67-1.34,7.18-1.34
				c3.41,0,5.12,0.98,5.12,2.94v7.72h-4.16v-7.24c0-0.58-0.23-0.98-0.69-1.21c-0.42-0.21-1.09-0.31-2.02-0.31
				c-1.58,0-3.38,0.32-5.41,0.97v7.79h-4.18V25.35H132.77z"/>
		</g>
	</g>
</g>
</svg>
