<?xml version="1.0" encoding="UTF-8"?>
<svg xmlns="http://www.w3.org/2000/svg" xmlns:xlink="http://www.w3.org/1999/xlink" width="178px" height="36px" viewBox="0 0 178 36" version="1.1">
<g id="surface1">
<rect x="0" y="0" width="178" height="36" style="fill:rgb(49.803922%,28.627452%,56.078434%);fill-opacity:1;stroke:none;"/>
<path style=" stroke:none;fill-rule:nonzero;fill:rgb(89.019608%,48.627451%,22.745098%);fill-opacity:1;" d="M 67.457031 13.988281 C 67.457031 14.136719 68.050781 14.253906 68.777344 14.253906 C 69.507812 14.253906 70.101562 14.136719 70.101562 13.988281 C 70.101562 13.839844 69.507812 13.71875 68.777344 13.71875 C 68.050781 13.71875 67.457031 13.839844 67.457031 13.988281 "/>
<path style=" stroke:none;fill-rule:nonzero;fill:rgb(89.019608%,48.627451%,22.745098%);fill-opacity:1;" d="M 70.101562 13.453125 C 70.101562 13.601562 70.691406 13.71875 71.421875 13.71875 C 72.148438 13.71875 72.742188 13.601562 72.742188 13.453125 C 72.742188 13.304688 72.148438 13.1875 71.421875 13.1875 C 70.691406 13.1875 70.101562 13.304688 70.101562 13.453125 "/>
<path style=" stroke:none;fill-rule:nonzero;fill:rgb(89.019608%,48.627451%,22.745098%);fill-opacity:1;" d="M 72.742188 13.027344 C 72.742188 13.171875 73.332031 13.292969 74.0625 13.292969 C 74.792969 13.292969 75.382812 13.171875 75.382812 13.027344 C 75.382812 12.878906 74.792969 12.757812 74.0625 12.757812 C 73.332031 12.757812 72.742188 12.878906 72.742188 13.027344 "/>
<path style=" stroke:none;fill-rule:nonzero;fill:rgb(89.019608%,48.627451%,22.745098%);fill-opacity:1;" d="M 75.382812 12.664062 C 75.382812 12.8125 75.976562 12.929688 76.703125 12.929688 C 77.433594 12.929688 78.023438 12.8125 78.023438 12.664062 C 78.023438 12.515625 77.433594 12.398438 76.703125 12.398438 C 75.976562 12.398438 75.382812 12.515625 75.382812 12.664062 "/>
<path style=" stroke:none;fill-rule:nonzero;fill:rgb(89.019608%,48.627451%,22.745098%);fill-opacity:1;" d="M 78.613281 12.332031 C 78.613281 12.480469 79.207031 12.601562 79.933594 12.601562 C 80.664062 12.601562 81.257812 12.480469 81.257812 12.332031 C 81.257812 12.183594 80.664062 12.066406 79.933594 12.066406 C 79.207031 12.066406 78.613281 12.183594 78.613281 12.332031 "/>
<path style=" stroke:none;fill-rule:nonzero;fill:rgb(89.019608%,48.627451%,22.745098%);fill-opacity:1;" d="M 81.84375 12.128906 C 81.84375 12.277344 82.4375 12.398438 83.164062 12.398438 C 83.894531 12.398438 84.488281 12.277344 84.488281 12.128906 C 84.488281 11.980469 83.894531 11.863281 83.164062 11.863281 C 82.4375 11.863281 81.84375 11.980469 81.84375 12.128906 "/>
<path style=" stroke:none;fill-rule:nonzero;fill:rgb(89.019608%,48.627451%,22.745098%);fill-opacity:1;" d="M 85.175781 11.9375 C 85.175781 12.085938 85.769531 12.203125 86.496094 12.203125 C 87.226562 12.203125 87.816406 12.085938 87.816406 11.9375 C 87.816406 11.789062 87.226562 11.667969 86.496094 11.667969 C 85.769531 11.667969 85.175781 11.789062 85.175781 11.9375 "/>
<path style=" stroke:none;fill-rule:nonzero;fill:rgb(89.019608%,48.627451%,22.745098%);fill-opacity:1;" d="M 88.550781 11.796875 C 88.550781 11.945312 89.140625 12.066406 89.871094 12.066406 C 90.597656 12.066406 91.191406 11.945312 91.191406 11.796875 C 91.191406 11.652344 90.597656 11.53125 89.871094 11.53125 C 89.140625 11.53125 88.550781 11.652344 88.550781 11.796875 "/>
<path style=" stroke:none;fill-rule:nonzero;fill:rgb(89.019608%,48.627451%,22.745098%);fill-opacity:1;" d="M 92.042969 11.710938 C 92.042969 11.859375 92.636719 11.976562 93.363281 11.976562 C 94.09375 11.976562 94.6875 11.859375 94.6875 11.710938 C 94.6875 11.5625 94.09375 11.445312 93.363281 11.445312 C 92.636719 11.445312 92.042969 11.5625 92.042969 11.710938 "/>
<path style=" stroke:none;fill-rule:nonzero;fill:rgb(89.019608%,48.627451%,22.745098%);fill-opacity:1;" d="M 95.082031 11.710938 C 95.082031 11.859375 95.675781 11.976562 96.402344 11.976562 C 97.132812 11.976562 97.722656 11.859375 97.722656 11.710938 C 97.722656 11.5625 97.132812 11.445312 96.402344 11.445312 C 95.675781 11.445312 95.082031 11.5625 95.082031 11.710938 "/>
<path style=" stroke:none;fill-rule:nonzero;fill:rgb(89.019608%,48.627451%,22.745098%);fill-opacity:1;" d="M 98.332031 11.796875 C 98.332031 11.945312 98.925781 12.066406 99.65625 12.066406 C 100.382812 12.066406 100.976562 11.945312 100.976562 11.796875 C 100.976562 11.652344 100.382812 11.53125 99.65625 11.53125 C 98.925781 11.53125 98.332031 11.652344 98.332031 11.796875 "/>
<path style=" stroke:none;fill-rule:nonzero;fill:rgb(89.019608%,48.627451%,22.745098%);fill-opacity:1;" d="M 101.949219 11.898438 C 101.949219 12.042969 102.542969 12.164062 103.269531 12.164062 C 104 12.164062 104.59375 12.042969 104.59375 11.898438 C 104.59375 11.75 104 11.628906 103.269531 11.628906 C 102.542969 11.628906 101.949219 11.75 101.949219 11.898438 "/>
<path style=" stroke:none;fill-rule:nonzero;fill:rgb(89.019608%,48.627451%,22.745098%);fill-opacity:1;" d="M 105.28125 12.066406 C 105.28125 12.214844 105.875 12.332031 106.601562 12.332031 C 107.332031 12.332031 107.925781 12.214844 107.925781 12.066406 C 107.925781 11.917969 107.332031 11.796875 106.601562 11.796875 C 105.875 11.796875 105.28125 11.917969 105.28125 12.066406 "/>
<path style=" stroke:none;fill-rule:nonzero;fill:rgb(89.019608%,48.627451%,22.745098%);fill-opacity:1;" d="M 108.253906 12.332031 C 108.253906 12.480469 108.84375 12.601562 109.574219 12.601562 C 110.300781 12.601562 110.894531 12.480469 110.894531 12.332031 C 110.894531 12.183594 110.300781 12.066406 109.574219 12.066406 C 108.84375 12.066406 108.253906 12.183594 108.253906 12.332031 "/>
<path style=" stroke:none;fill-rule:nonzero;fill:rgb(89.019608%,48.627451%,22.745098%);fill-opacity:1;" d="M 111.503906 12.652344 C 111.503906 12.800781 112.09375 12.921875 112.824219 12.921875 C 113.554688 12.921875 114.144531 12.800781 114.144531 12.652344 C 114.144531 12.507812 113.554688 12.386719 112.824219 12.386719 C 112.09375 12.386719 111.503906 12.507812 111.503906 12.652344 "/>
<path style=" stroke:none;fill-rule:nonzero;fill:rgb(89.019608%,48.627451%,22.745098%);fill-opacity:1;" d="M 114.46875 13.046875 C 114.46875 13.195312 115.0625 13.316406 115.789062 13.316406 C 116.519531 13.316406 117.113281 13.195312 117.113281 13.046875 C 117.113281 12.902344 116.519531 12.78125 115.789062 12.78125 C 115.0625 12.78125 114.46875 12.902344 114.46875 13.046875 "/>
<path style=" stroke:none;fill-rule:nonzero;fill:rgb(89.019608%,48.627451%,22.745098%);fill-opacity:1;" d="M 117.4375 13.441406 C 117.4375 13.589844 118.027344 13.710938 118.757812 13.710938 C 119.488281 13.710938 120.078125 13.589844 120.078125 13.441406 C 120.078125 13.292969 119.488281 13.175781 118.757812 13.175781 C 118.027344 13.175781 117.4375 13.292969 117.4375 13.441406 "/>
<path style=" stroke:none;fill-rule:nonzero;fill:rgb(89.019608%,48.627451%,22.745098%);fill-opacity:1;" d="M 120.078125 13.976562 C 120.078125 14.125 120.667969 14.242188 121.398438 14.242188 C 122.128906 14.242188 122.71875 14.125 122.71875 13.976562 C 122.71875 13.828125 122.128906 13.710938 121.398438 13.710938 C 120.667969 13.710938 120.078125 13.828125 120.078125 13.976562 "/>
<path style=" stroke:none;fill-rule:nonzero;fill:rgb(89.019608%,48.627451%,22.745098%);fill-opacity:1;" d="M 122.433594 14.550781 C 122.433594 14.699219 123.027344 14.820312 123.753906 14.820312 C 124.484375 14.820312 125.078125 14.699219 125.078125 14.550781 C 125.078125 14.40625 124.484375 14.285156 123.753906 14.285156 C 123.027344 14.285156 122.433594 14.40625 122.433594 14.550781 "/>
<path style=" stroke:none;fill-rule:nonzero;fill:rgb(89.019608%,48.627451%,22.745098%);fill-opacity:1;" d="M 124.386719 15.128906 C 124.386719 15.273438 124.976562 15.394531 125.707031 15.394531 C 126.4375 15.394531 127.027344 15.273438 127.027344 15.128906 C 127.027344 14.980469 126.4375 14.859375 125.707031 14.859375 C 124.976562 14.859375 124.386719 14.980469 124.386719 15.128906 "/>
<path style=" stroke:none;fill-rule:nonzero;fill:rgb(89.019608%,48.627451%,22.745098%);fill-opacity:1;" d="M 126.335938 15.703125 C 126.335938 15.851562 126.925781 15.96875 127.65625 15.96875 C 128.386719 15.96875 128.976562 15.851562 128.976562 15.703125 C 128.976562 15.554688 128.386719 15.433594 127.65625 15.433594 C 126.925781 15.433594 126.335938 15.554688 126.335938 15.703125 "/>
<path style=" stroke:none;fill-rule:nonzero;fill:rgb(89.019608%,48.627451%,22.745098%);fill-opacity:1;" d="M 127.65625 16.351562 C 127.65625 16.5 128.25 16.617188 128.976562 16.617188 C 129.707031 16.617188 130.296875 16.5 130.296875 16.351562 C 130.296875 16.203125 129.707031 16.085938 128.976562 16.085938 C 128.25 16.085938 127.65625 16.203125 127.65625 16.351562 "/>
<path style=" stroke:none;fill-rule:nonzero;fill:rgb(89.019608%,48.627451%,22.745098%);fill-opacity:1;" d="M 128.976562 17 C 128.976562 17.148438 129.570312 17.269531 130.296875 17.269531 C 131.027344 17.269531 131.621094 17.148438 131.621094 17 C 131.621094 16.855469 131.027344 16.734375 130.296875 16.734375 C 129.570312 16.734375 128.976562 16.855469 128.976562 17 "/>
<path style=" stroke:none;fill-rule:nonzero;fill:rgb(89.019608%,48.627451%,22.745098%);fill-opacity:1;" d="M 129.710938 17.652344 C 129.710938 17.796875 130.300781 17.917969 131.03125 17.917969 C 131.757812 17.917969 132.351562 17.796875 132.351562 17.652344 C 132.351562 17.503906 131.757812 17.382812 131.03125 17.382812 C 130.300781 17.382812 129.710938 17.503906 129.710938 17.652344 "/>
<path style=" stroke:none;fill-rule:nonzero;fill:rgb(89.019608%,48.627451%,22.745098%);fill-opacity:1;" d="M 130.296875 18.324219 C 130.296875 18.472656 130.890625 18.589844 131.621094 18.589844 C 132.347656 18.589844 132.941406 18.472656 132.941406 18.324219 C 132.941406 18.175781 132.347656 18.058594 131.621094 18.058594 C 130.890625 18.058594 130.296875 18.175781 130.296875 18.324219 "/>
<path style=" stroke:none;fill-rule:nonzero;fill:rgb(89.019608%,48.627451%,22.745098%);fill-opacity:1;" d="M 130.664062 19.007812 C 130.664062 19.152344 131.257812 19.273438 131.984375 19.273438 C 132.714844 19.273438 133.304688 19.152344 133.304688 19.007812 C 133.304688 18.859375 132.714844 18.738281 131.984375 18.738281 C 131.257812 18.738281 130.664062 18.859375 130.664062 19.007812 "/>
<path style=" stroke:none;fill-rule:nonzero;fill:rgb(89.019608%,48.627451%,22.745098%);fill-opacity:1;" d="M 130.664062 19.722656 C 130.664062 19.867188 131.257812 19.988281 131.984375 19.988281 C 132.714844 19.988281 133.304688 19.867188 133.304688 19.722656 C 133.304688 19.574219 132.714844 19.453125 131.984375 19.453125 C 131.257812 19.453125 130.664062 19.574219 130.664062 19.722656 "/>
<path style=" stroke:none;fill-rule:nonzero;fill:rgb(89.019608%,48.627451%,22.745098%);fill-opacity:1;" d="M 67.632812 15.511719 C 68.28125 15.511719 68.84375 15.46875 69.316406 15.378906 C 69.800781 15.285156 70.042969 15.175781 70.042969 15.042969 C 70.042969 14.910156 69.800781 14.796875 69.316406 14.699219 C 68.828125 14.601562 68.265625 14.554688 67.632812 14.554688 C 66.980469 14.554688 66.410156 14.601562 65.921875 14.699219 C 65.4375 14.792969 65.195312 14.90625 65.195312 15.042969 C 65.195312 15.175781 65.4375 15.285156 65.921875 15.378906 C 66.410156 15.46875 66.980469 15.511719 67.632812 15.511719 "/>
<path style=" stroke:none;fill-rule:nonzero;fill:rgb(98.431373%,96.862745%,96.078432%);fill-opacity:1;" d="M 122.402344 23.769531 C 123.332031 23.53125 123.796875 23.1875 123.796875 22.742188 C 123.796875 22.289062 123.332031 21.9375 122.402344 21.695312 C 121.488281 21.457031 120.222656 21.335938 118.617188 21.335938 C 117.035156 21.335938 115.789062 21.457031 114.871094 21.695312 C 113.914062 21.941406 113.4375 22.289062 113.4375 22.742188 C 113.4375 23.183594 113.914062 23.527344 114.871094 23.765625 C 115.773438 23.996094 117.019531 24.109375 118.617188 24.109375 C 120.238281 24.109375 121.5 23.996094 122.402344 23.769531 M 111.917969 24.226562 C 110.117188 23.855469 109.214844 23.359375 109.214844 22.742188 C 109.214844 22.121094 110.117188 21.617188 111.917969 21.234375 C 113.652344 20.867188 115.882812 20.679688 118.617188 20.679688 C 121.347656 20.679688 123.585938 20.867188 125.335938 21.234375 C 127.136719 21.617188 128.039062 22.121094 128.039062 22.742188 C 128.039062 23.359375 127.136719 23.855469 125.335938 24.226562 C 123.601562 24.589844 121.363281 24.769531 118.617188 24.769531 C 115.882812 24.769531 113.652344 24.589844 111.917969 24.226562 "/>
<path style=" stroke:none;fill-rule:nonzero;fill:rgb(98.431373%,96.862745%,96.078432%);fill-opacity:1;" d="M 39.640625 19.820312 L 39.640625 14.496094 L 56.03125 14.496094 L 56.03125 15.203125 L 44.050781 15.203125 L 44.050781 16.875 L 53.140625 16.875 L 53.140625 17.5625 L 44.050781 17.5625 L 44.050781 19.820312 Z M 39.640625 19.820312 "/>
<path style=" stroke:none;fill-rule:nonzero;fill:rgb(98.431373%,96.862745%,96.078432%);fill-opacity:1;" d="M 61.972656 14.699219 C 61.75 14.628906 61.238281 14.597656 60.433594 14.597656 L 58.125 14.597656 L 58.125 18.273438 C 59.070312 18.0625 60.308594 17.789062 61.710938 17.484375 L 61.75 16.914062 C 61.753906 16.828125 61.839844 16.738281 61.992188 16.65625 C 62.078125 16.609375 62.183594 16.5625 62.292969 16.515625 C 62.304688 16.511719 62.316406 16.507812 62.328125 16.503906 L 62.328125 15.144531 C 62.328125 14.914062 62.210938 14.765625 61.972656 14.699219 M 58.125 19.894531 L 62.328125 19.894531 L 62.328125 18.066406 L 58.125 18.703125 Z M 58.125 19.894531 "/>
<path style=" stroke:none;fill-rule:nonzero;fill:rgb(98.431373%,96.862745%,96.078432%);fill-opacity:1;" d="M 65.507812 19.847656 L 69.667969 19.847656 L 69.667969 18.675781 L 65.507812 18.046875 Z M 65.507812 19.847656 "/>
<path style=" stroke:none;fill-rule:nonzero;fill:rgb(98.431373%,96.862745%,96.078432%);fill-opacity:1;" d="M 67.816406 15.863281 L 65.507812 15.863281 L 65.507812 16.445312 C 65.566406 16.46875 65.625 16.492188 65.683594 16.515625 C 65.792969 16.5625 65.898438 16.609375 65.984375 16.65625 C 66.136719 16.738281 66.222656 16.828125 66.226562 16.914062 L 66.265625 17.484375 C 67.574219 17.769531 68.75 18.027344 69.667969 18.230469 L 69.667969 16.492188 C 69.667969 16.226562 69.558594 16.050781 69.335938 15.976562 C 69.128906 15.902344 68.621094 15.863281 67.816406 15.863281 "/>
<path style=" stroke:none;fill-rule:nonzero;fill:rgb(98.431373%,96.862745%,96.078432%);fill-opacity:1;" d="M 84.824219 18.753906 L 84.824219 16.914062 C 83.6875 16.703125 82.28125 16.59375 80.601562 16.59375 C 77.261719 16.59375 75.589844 17.03125 75.589844 17.898438 C 75.589844 18.769531 77.085938 19.203125 80.082031 19.203125 C 81.734375 19.203125 83.3125 19.054688 84.824219 18.753906 M 88.984375 19.765625 C 88.984375 20.226562 88.160156 20.582031 86.511719 20.832031 C 84.914062 21.074219 82.722656 21.191406 79.9375 21.191406 C 76.859375 21.191406 74.3125 21.078125 72.304688 20.851562 L 72.304688 20.210938 L 73.78125 20.210938 C 75.179688 20.433594 77.046875 20.546875 79.375 20.546875 C 83.007812 20.546875 84.824219 20.269531 84.824219 19.714844 L 84.824219 19.398438 C 83.160156 19.695312 81.253906 19.84375 79.105469 19.84375 C 76.898438 19.84375 75.117188 19.699219 73.757812 19.410156 C 72.179688 19.078125 71.386719 18.59375 71.386719 17.957031 C 71.386719 17.265625 72.253906 16.738281 73.988281 16.371094 C 75.472656 16.0625 77.371094 15.90625 79.6875 15.90625 C 81.917969 15.90625 83.742188 16.03125 85.15625 16.289062 C 85.53125 16.070312 86.164062 15.960938 87.050781 15.960938 L 88.984375 15.960938 Z M 88.984375 19.765625 "/>
<path style=" stroke:none;fill-rule:nonzero;fill:rgb(98.431373%,96.862745%,96.078432%);fill-opacity:1;" d="M 95.640625 16.382812 C 97.914062 16.046875 100.300781 15.878906 102.796875 15.878906 C 106.207031 15.878906 107.914062 16.25 107.914062 16.996094 L 107.914062 19.917969 L 103.753906 19.917969 L 103.753906 17.175781 C 103.753906 16.957031 103.523438 16.804688 103.066406 16.71875 C 102.648438 16.636719 101.976562 16.597656 101.046875 16.597656 C 99.46875 16.597656 97.664062 16.722656 95.640625 16.964844 L 95.640625 19.917969 L 91.460938 19.917969 L 91.460938 14.621094 L 93.75 14.621094 C 94.550781 14.621094 95.066406 14.652344 95.285156 14.714844 C 95.523438 14.78125 95.640625 14.933594 95.640625 15.167969 Z M 95.640625 16.382812 "/>
<path style=" stroke:none;fill-rule:nonzero;fill:rgb(98.431373%,96.862745%,96.078432%);fill-opacity:1;" d="M 109.4375 15.933594 L 111.746094 15.933594 L 111.746094 14.878906 L 115.90625 14.878906 L 115.90625 15.933594 L 120.191406 15.933594 L 120.191406 16.558594 L 115.90625 16.558594 L 115.90625 18.824219 C 115.90625 19.007812 116.113281 19.140625 116.53125 19.214844 C 116.917969 19.285156 117.5625 19.316406 118.464844 19.316406 L 120.398438 19.316406 L 120.398438 19.882812 C 119.289062 19.941406 118.203125 19.96875 117.132812 19.96875 C 113.542969 19.96875 111.746094 19.617188 111.746094 18.917969 L 111.746094 16.558594 L 109.4375 16.558594 Z M 109.4375 15.933594 "/>
<path style=" stroke:none;fill-rule:nonzero;fill:rgb(98.431373%,96.862745%,96.078432%);fill-opacity:1;" d="M 132.765625 20.785156 C 133.292969 20.785156 133.675781 20.816406 133.910156 20.875 C 134.175781 20.941406 134.332031 21.0625 134.390625 21.238281 C 136.664062 20.902344 139.054688 20.730469 141.566406 20.730469 C 144.976562 20.730469 146.683594 21.101562 146.683594 21.847656 L 146.683594 24.769531 L 142.523438 24.769531 L 142.523438 22.027344 C 142.523438 21.808594 142.292969 21.65625 141.835938 21.570312 C 141.417969 21.488281 140.746094 21.449219 139.816406 21.449219 C 138.238281 21.449219 136.433594 21.574219 134.410156 21.816406 L 134.410156 24.769531 L 130.230469 24.769531 L 130.230469 20.785156 Z M 132.765625 20.785156 "/>
</g>
</svg>
