<?xml version="1.0" encoding="UTF-8"?>
<svg id="Layer_1" xmlns="http://www.w3.org/2000/svg" version="1.1" viewBox="0 0 210 41">
  <!-- Generator: Adobe Illustrator 29.7.1, SVG Export Plug-In . SVG Version: 2.1.1 Build 8)  -->
  <defs>
    <style>
      .st0 {
        fill: #e27727;
      }

      .st1 {
        fill: #793d8b;
      }
    </style>
  </defs>
  <circle class="st0" cx="90.55" cy="8.43" r=".78"/>
  <circle class="st0" cx="92.12" cy="6.87" r=".78"/>
  <circle class="st0" cx="93.68" cy="5.62" r=".78"/>
  <circle class="st0" cx="95.25" cy="4.56" r=".78"/>
  <circle class="st0" cx="97.16" cy="3.59" r=".78"/>
  <circle class="st0" cx="99.08" cy="2.99" r=".78"/>
  <circle class="st0" cx="101.05" cy="2.42" r=".78"/>
  <circle class="st0" cx="103.05" cy="2.02" r=".78"/>
  <circle class="st0" cx="105.12" cy="1.76" r=".78"/>
  <circle class="st0" cx="106.92" cy="1.76" r=".78"/>
  <circle class="st0" cx="108.85" cy="2.02" r=".78"/>
  <circle class="st0" cx="110.99" cy="2.31" r=".78"/>
  <circle class="st0" cx="112.96" cy="2.8" r=".78"/>
  <circle class="st0" cx="114.72" cy="3.59" r=".78"/>
  <circle class="st0" cx="116.65" cy="4.52" r=".78"/>
  <circle class="st0" cx="118.41" cy="5.68" r=".78"/>
  <circle class="st0" cx="120.17" cy="6.84" r=".78"/>
  <circle class="st0" cx="121.73" cy="8.4" r=".78"/>
  <circle class="st0" cx="123.13" cy="10.09" r=".78"/>
  <circle class="st0" cx="124.28" cy="11.77" r=".78"/>
  <circle class="st0" cx="125.44" cy="13.46" r=".78"/>
  <circle class="st0" cx="126.22" cy="15.36" r=".78"/>
  <circle class="st0" cx="127" cy="17.26" r=".78"/>
  <circle class="st0" cx="127.44" cy="19.16" r=".78"/>
  <circle class="st0" cx="127.79" cy="21.14" r=".78"/>
  <circle class="st0" cx="128" cy="23.14" r=".78"/>
  <circle class="st0" cx="128" cy="25.23" r=".78"/>
  <path class="st0" d="M89.87,12.9c.39,0,.72-.13,1-.39.29-.27.43-.6.43-.99s-.14-.72-.43-1.01c-.29-.28-.62-.42-1-.42s-.72.14-1.01.42c-.29.28-.43.62-.43,1.01s.14.71.43.99c.29.26.63.39,1.01.39Z"/>
  <g>
    <path class="st1" d="M116.11,38.43c-1.07-1.09-1.6-2.54-1.6-4.35s.53-3.29,1.6-4.41c1.03-1.08,2.35-1.63,3.97-1.63s2.95.54,3.98,1.63c1.07,1.12,1.6,2.59,1.6,4.41s-.53,3.26-1.6,4.35c-1.03,1.06-2.35,1.59-3.98,1.59s-2.94-.53-3.97-1.59ZM122.33,37.09c.55-.7.83-1.7.83-3.01s-.28-2.35-.83-3.07c-.54-.7-1.29-1.05-2.24-1.05s-1.68.35-2.22,1.05c-.57.72-.85,1.75-.85,3.07s.28,2.3.85,2.99c.53.67,1.27,1.01,2.22,1.01s1.71-.33,2.24-1Z"/>
    <g>
      <path class="st1" d="M73.29,25.52v-15.6h9.71v2.07h-7.1v4.9h5.39v2.01h-5.39v6.62h-2.61Z"/>
      <path class="st1" d="M84.24,25.73h2.49v-5.35l-2.49,1.86v3.48ZM86.52,10.51c-.13-.2-.44-.3-.91-.3h-1.37v10.77c.56-.62,1.29-1.42,2.12-2.3l.02-1.67c0-.26.05-.51.14-.75.05-.14.11-.28.18-.42,0-.01.01-.03.02-.04v-3.98c0-.67-.07-1.11-.21-1.31Z"/>
      <polygon class="st1" points="88.62 25.6 91.08 25.6 91.08 22.17 88.62 20.32 88.62 25.6"/>
      <path class="st1" d="M89.98,13.93h-1.37v1.71c.03.06.07.13.1.2.07.14.13.28.18.42.09.24.14.5.14.75l.02,1.67c.78.83,1.47,1.58,2.02,2.18v-5.09c0-.79-.07-1.29-.2-1.52-.12-.22-.42-.33-.9-.33Z"/>
      <path class="st1" d="M102.53,25.36c0,1.35-.49,2.39-1.47,3.12-.95.71-2.24,1.06-3.89,1.06-1.82,0-3.33-.33-4.52-1v-1.87h.88c.83.65,1.93.97,3.32.97,2.15,0,3.23-.81,3.23-2.43v-.94c-.99.87-2.12,1.31-3.39,1.31s-2.36-.42-3.17-1.27c-.94-.97-1.4-2.39-1.4-4.25,0-2.03.51-3.58,1.54-4.65.88-.91,2-1.37,3.38-1.37s2.4.37,3.24,1.12c.22-.64.6-.96,1.12-.96h1.15v11.15ZM100.06,22.39v-5.39c-.67-.62-1.51-.94-2.5-.94-1.98,0-2.97,1.27-2.97,3.82s.89,3.82,2.66,3.82c.98,0,1.91-.44,2.81-1.32Z"/>
      <path class="st1" d="M106.47,15.46c1.35-.99,2.76-1.48,4.24-1.48,2.02,0,3.03,1.09,3.03,3.27v8.57h-2.46v-8.04c0-.64-.14-1.09-.41-1.34-.25-.23-.65-.35-1.2-.35-.94,0-2,.36-3.2,1.07v8.65h-2.48v-15.52h1.36c.48,0,.78.09.91.27.14.2.21.64.21,1.33v3.56Z"/>
      <path class="st1" d="M114.64,14.14h1.37v-3.09h2.46v3.09h2.54v1.82h-2.54v6.64c0,.54.12.92.37,1.15.23.2.61.3,1.15.3h1.15v1.66c-.66.16-1.3.25-1.93.25-2.13,0-3.19-1.03-3.19-3.08v-6.91h-1.37v-1.82Z"/>
      <path class="st1" d="M128.47,28.35c.31,0,.54.09.68.26.16.2.25.55.28,1.07,1.35-.99,2.76-1.49,4.25-1.49,2.02,0,3.03,1.09,3.03,3.27v8.57h-2.46v-8.04c0-.64-.14-1.09-.41-1.34-.25-.23-.65-.35-1.2-.35-.94,0-2,.36-3.2,1.07v8.65h-2.48v-11.67h1.5Z"/>
    </g>
  </g>
</svg>