<svg version="1.1" id="Layer_1" xmlns="http://www.w3.org/2000/svg" xmlns:xlink="http://www.w3.org/1999/xlink" x="0px" y="0px" viewBox="0 0 261.5 102" style="enable-background:new 0 0 261.5 102;" xml:space="preserve">
 <style type="text/css">
  .st0{fill-rule:evenodd;clip-rule:evenodd;fill:#522D6D;}
	.st1{fill-rule:evenodd;clip-rule:evenodd;fill:#CDDE00;}
	.st2{fill-rule:evenodd;clip-rule:evenodd;fill:#FFFFFF;}
 </style>
 <g>
  <g id="Page-1_1_">
   <g id="flyadeal_styleguide_1_">
    <path id="Fill-1_1_" class="st0" d="M0,0v102c61.9-6.4,141.9-12.2,241.4-12.2c8.4-11.8,20.2-40.5,20.2-67.4
				c0-8.9-1.9-16.3-5.4-22.3H0z">
    </path>
   </g>
  </g>
  <g>
   <path id="Combined-Shape" class="st1" d="M53.2,59.8c2.3,0,3.6,1.1,3.6,3.3s-1,4.5-1.7,5.5c-17.8,0-27.9,2.3-31.6,2.3
			c-2.3,0-3.1-1.3-3.1-4c0-3,1.3-5.5,1.3-5.5C38.8,61.3,47.2,59.8,53.2,59.8z M58.4,46.6c2.3,0,3.6,1.1,3.6,3.3c0,2.1-1,4.5-1.7,5.5
			c-17.8,0-27.9,2.3-31.6,2.3c-2.3,0-3.1-1.3-3.1-4c0-3,1.3-5.5,1.3-5.5C44,48.1,52.4,46.6,58.4,46.6z">
   </path>
   <path class="st2" d="M98.8,46.8c0.2,0,0.4,0.2,0.5,0.3l4.8,16.9l4.3-15c0.4-1.4,1.3-2.2,2.9-2.2h3.7c0.3,0,0.6,0.3,0.4,0.6
			l-9.1,27.1c-0.7,2-1.7,3.4-2.8,4.3c-1.1,0.7-2.9,1.1-5.4,1.1h-1.3c-0.2-0.1-0.4-0.1-0.7-0.2c-0.2,0-0.5-0.1-0.7-0.1v-4.6
			c0-0.2,0.2-0.5,0.5-0.5h1.3c1.2,0,2.1-0.3,2.9-0.9c0.7-0.6,0.9-1.5,0.4-2.8l-8.1-23.5c-0.1-0.3,0.1-0.6,0.4-0.6H98.8z M125.8,46.3
			c3.4,0,5.9,0.6,7.7,1.7c1.7,1.2,2.6,2.9,2.6,5.2v8.3c0,2.5-0.5,4.4-1.3,5.7c-0.9,1.3-1.9,2.4-3.2,2.9c-1.3,0.6-2.6,1.1-4,1.3
			c-1.4,0.2-2.7,0.2-3.8,0.2c-2.2,0-4.1-0.6-5.8-1.7c-1.7-1.2-2.5-3.2-2.5-5.9c0-2.5,0.7-4.4,2.2-5.5s3.4-1.8,5.7-2.2
			c0.3,0,0.6-0.1,1.1-0.2c0.4-0.1,1-0.2,1.4-0.2c2.7-0.4,4-1.2,4-2.4c0-1-0.5-1.5-1.4-1.7c-1-0.2-1.8-0.4-2.6-0.4
			c-0.9,0-1.6,0.2-2.3,0.4c-0.6,0.2-1,0.6-1.3,1.1c-0.1,0.2-0.2,0.2-0.4,0.2h-5.3c-0.3,0-0.5-0.2-0.5-0.6c0.3-1.7,1.2-3,2.5-4.1
			C120.4,47,122.7,46.3,125.8,46.3z M158.1,39.6c0.9,0,1.6,0.3,2.2,1c0.6,0.6,1,1.3,1,2.1v17.8c0,4.4-1.3,7.2-3.7,8.8
			c-2.5,1.5-5.2,2.3-8.2,2.3c-1.6,0-3.2-0.2-4.7-0.8c-1.5-0.6-2.8-1.3-3.6-2.5c-1.7-2.2-2.6-5.3-2.6-9.2c0-3.8,0.9-6.9,2.6-9.2
			c1.8-2.4,4.2-3.6,7.1-3.6c1.5,0,2.9,0.3,4,1c1.2,0.7,2.2,1.7,2.9,2.9V40.1c0-0.2,0.2-0.5,0.5-0.5H158.1z M174.1,46.3
			c3.6,0,6.5,1.1,8.5,3.3c2,2.2,2.9,5.4,2.9,9.4v1c0,0.3-0.1,0.6-0.3,0.6h-15.5c0.1,1.9,0.6,3.3,1.3,4.2c0.8,1,2,1.4,3.6,1.4
			c1,0,1.9-0.2,2.6-0.6c0.2-0.1,0.3-0.2,0.5-0.3c0.2-0.2,0.3-0.3,0.5-0.5c0.1-0.2,0.3-0.4,0.7-0.7c0.4-0.3,1-0.5,1.7-0.5h4
			c0.3,0,0.6,0.3,0.5,0.6c-0.7,2.3-1.9,4-3.6,5.2c-1.9,1.4-4.3,2.1-7.1,2.1c-3.5,0-6.2-1.1-8.2-3.4c-2-2.2-2.9-5.3-2.9-9.4
			c0-3.9,1-7,2.9-9.1C167.9,47.4,170.6,46.3,174.1,46.3z M197.3,46.3c3.4,0,5.9,0.6,7.7,1.7c1.7,1.2,2.6,2.9,2.6,5.2v8.3
			c0,2.5-0.5,4.4-1.3,5.7c-0.9,1.3-1.9,2.4-3.2,2.9c-1.3,0.6-2.6,1.1-4,1.3s-2.7,0.2-3.8,0.2c-2.2,0-4.1-0.6-5.8-1.7
			c-1.7-1.2-2.5-3.2-2.5-5.9c0-2.5,0.7-4.4,2.2-5.5c1.5-1.1,3.4-1.8,5.7-2.2c0.3,0,0.6-0.1,1.1-0.2c0.4-0.1,1-0.2,1.4-0.2
			c2.7-0.4,4-1.2,4-2.4c0-1-0.5-1.5-1.4-1.7c-1-0.2-1.8-0.4-2.6-0.4c-0.9,0-1.6,0.2-2.3,0.4c-0.6,0.2-1,0.6-1.3,1.1
			c-0.1,0.2-0.2,0.2-0.4,0.2h-5.3c-0.3,0-0.5-0.2-0.5-0.6c0.3-1.7,1.2-3,2.5-4.1C191.9,47,194.3,46.3,197.3,46.3z M78,39.6
			c0.6,0,1.1,0,1.4,0.1c0.5,0,0.8,0,1.1,0.1c0.2,0,0.4,0.2,0.4,0.5v4.1c0,0.2-0.2,0.5-0.5,0.5h-1.2c-0.9,0-1.4,0.2-1.8,0.4
			c-0.3,0.2-0.5,0.7-0.5,1.4v1.7h3.5c0.2,0,0.5,0.2,0.5,0.5v0.9c0,1-0.3,1.7-1,2.2c-0.6,0.6-1.3,0.9-2.1,0.9h-1v17.9
			c0,0.2-0.2,0.5-0.5,0.5h-5.3c-0.2,0-0.5-0.2-0.5-0.5V46.1c0-2.2,0.6-3.8,1.7-4.9C73.6,40.1,75.4,39.6,78,39.6z M86.8,39.7
			c0.9,0,1.6,0.3,2.2,0.9s1,1.3,1,2.1v28c0,0.2-0.2,0.5-0.5,0.5H84c-0.2,0-0.5-0.2-0.5-0.5V40.2c0-0.2,0.2-0.5,0.5-0.5H86.8z
			 M213.3,39.7c0.9,0,1.6,0.3,2.2,0.9s1,1.3,1,2.1v28c0,0.2-0.2,0.5-0.5,0.5h-5.5c-0.2,0-0.5-0.2-0.5-0.5V40.2
			c0-0.2,0.2-0.5,0.5-0.5H213.3z M130.2,58.9c-0.9,0.4-2.1,0.8-3.6,1.2l-2.1,0.5c-1.1,0.3-1.9,0.7-2.4,1.2c-0.4,0.6-0.6,1.3-0.6,2
			c0,1,0.2,1.7,0.8,2.2c0.6,0.5,1.3,0.7,2.4,0.7c1.7,0,3-0.5,4-1.4c1-1,1.4-2.3,1.4-4L130.2,58.9L130.2,58.9z M201.8,58.9
			c-0.9,0.4-2.1,0.8-3.6,1.2l-2.1,0.5c-1.1,0.3-1.9,0.7-2.4,1.2c-0.4,0.6-0.6,1.3-0.6,2c0,1,0.2,1.7,0.8,2.2
			c0.6,0.5,1.3,0.7,2.4,0.7c1.7,0,3-0.5,4-1.4c1-1,1.4-2.3,1.4-4L201.8,58.9L201.8,58.9z M149.6,51.7c-1.6,0-2.9,0.6-3.7,1.9
			c-1,1.2-1.3,2.9-1.3,5.2c0,2.5,0.5,4.3,1.3,5.6c1,1.3,2.2,1.9,4,1.9c1.7,0,2.9-0.6,3.8-1.9c0.9-1.3,1.3-3.2,1.3-5.6
			c0-2.2-0.5-4-1.3-5.2C152.6,52.4,151.3,51.7,149.6,51.7z M174.2,51.6c-1.3,0-2.5,0.4-3.3,1.3c-0.9,0.9-1.3,2.1-1.3,3.6h9.4
			c-0.2-1.7-0.6-2.9-1.3-3.6C176.9,52,175.7,51.6,174.2,51.6z M177.7,27.2c0.2,0,0.2,0.1,0.2,0.2l0,0v7c0,1-0.2,1.7-0.5,2.5
			c-0.3,0.7-0.7,1.3-1.2,1.7c-0.5,0.4-1.1,0.7-1.8,1s-1.4,0.3-2.3,0.3c-0.8,0-1.5-0.1-2.2-0.3c-0.7-0.2-1.3-0.6-1.8-1
			c-0.6-0.4-1-1-1.3-1.7c-0.3-0.7-0.5-1.5-0.5-2.5c0-0.8,0.1-1.5,0.3-2.4c0.2-0.8,0.6-1.5,1-2.1c0.1-0.1,0.2-0.1,0.3-0.1l0,0
			l2.5,0.8c0.1,0,0.1,0.1,0.2,0.2c0,0.1,0,0.1,0,0.2c-0.2,0.4-0.4,0.9-0.6,1.4c-0.2,0.6-0.2,1.1-0.2,1.8c0,0.6,0.1,1,0.2,1.3
			s0.3,0.6,0.6,0.9c0.2,0.2,0.6,0.4,0.9,0.5s0.6,0.2,1,0.2c0.8,0,1.3-0.2,1.8-0.6c0.5-0.5,0.6-1.1,0.6-2.1l0,0v-5.5
			c0-0.9,0.7-1.7,1.7-1.7l0,0H177.7z M135.6,19.5c0.2,0,0.2,0.1,0.2,0.2l0,0V31c0,0.4,0.2,0.7,0.5,0.9c0.3,0.2,0.7,0.3,1.3,0.3l0,0
			h0.6l0,0l0,0l0,0h1.4c0.4,0,0.6-0.1,0.9-0.2c0.2-0.2,0.2-0.5,0.2-1l0,0v-4c0-0.9,0.7-1.7,1.7-1.7l0,0h1.3c0.2,0,0.2,0.1,0.2,0.2
			l0,0v6.5c0,1-0.2,1.7-0.6,2.1c-0.4,0.5-1.1,0.7-2.1,0.7l0,0h-3.1l0,0l0,0c-0.5,0-1-0.1-1.3-0.2c-0.4-0.1-0.7-0.2-1-0.6l0,0v0.2
			c0,1-0.2,1.7-0.5,2.5s-0.7,1.3-1.2,1.7c-0.6,0.4-1.1,0.7-1.8,1c-0.7,0.2-1.4,0.3-2.3,0.3c-0.8,0-1.5-0.1-2.2-0.3
			c-0.7-0.2-1.3-0.6-1.8-1c-0.6-0.4-1-1-1.3-1.7c-0.3-0.7-0.5-1.5-0.5-2.5c0-0.8,0.1-1.5,0.3-2.3c0.2-0.8,0.6-1.5,1-2.2
			c0.1-0.1,0.2-0.1,0.3-0.1l0,0l2.5,0.8c0.1,0,0.1,0.1,0.2,0.2c0,0.1,0,0.1,0,0.2c-0.2,0.4-0.4,0.9-0.6,1.4
			c-0.2,0.6-0.2,1.1-0.2,1.8c0,0.6,0.1,1,0.2,1.3c0.2,0.4,0.3,0.6,0.6,0.9c0.2,0.2,0.6,0.4,0.9,0.5s0.6,0.2,1,0.2
			c0.8,0,1.3-0.2,1.8-0.6c0.5-0.5,0.6-1.1,0.6-2.1l0,0V21.1c0-0.9,0.7-1.7,1.7-1.7l0,0L135.6,19.5L135.6,19.5z M205.8,19.5
			c0.2,0,0.2,0.1,0.2,0.2l0,0v6.4c0.7-0.3,1.4-0.6,2.3-0.8c0.8-0.2,1.7-0.3,2.6-0.3c1.8,0,3.3,0.5,4.2,1.3c1,0.9,1.4,2.3,1.4,4.1
			c0,1-0.1,1.7-0.2,2.2s-0.5,1-0.8,1.3c-0.4,0.3-0.9,0.6-1.5,0.7c-0.6,0.2-1.3,0.2-2.2,0.2l0,0h-5.4c-0.6,0-1-0.2-1.3-0.5
			c-0.2,0.2-0.6,0.4-1,0.4c-0.4,0.1-0.9,0.1-1.4,0.1l0,0h-2.1l0,0l0,0c-0.6,0-1.1-0.1-1.5-0.2c-0.4-0.2-0.8-0.5-1-1
			c-0.2,0.5-0.6,0.8-1.1,1c-0.5,0.2-1.1,0.2-2,0.2l0,0h-2.4l0,0l0,0c-0.5,0-1-0.1-1.3-0.2c-0.4-0.1-0.7-0.3-1-0.6l0,0v0.4
			c0,1.7-0.3,3-1,3.8c-0.6,0.8-1.8,1.3-3.4,1.3l0,0h-1c-0.2,0-0.2-0.1-0.2-0.2l0,0v-2.3c0-0.2,0.1-0.2,0.2-0.2l0,0h0.5
			c0.4,0,0.7-0.1,1-0.2c0.2-0.2,0.4-0.3,0.5-0.6c0.1-0.2,0.2-0.6,0.2-1c0-0.4,0.1-0.8,0.1-1.3l0,0V27c0-0.9,0.7-1.7,1.7-1.7l0,0h1.3
			c0.2,0,0.2,0.1,0.2,0.2l0,0V31c0,0.4,0.2,0.7,0.5,0.9c0.3,0.2,0.7,0.3,1.3,0.3l0,0h0.5l0,0l0,0l0,0h1.4c0.5,0,0.8-0.2,1-0.4
			c0.2-0.3,0.2-0.8,0.2-1.4l0,0V27c0-0.9,0.7-1.7,1.7-1.7l0,0h1.3c0.2,0,0.2,0.1,0.2,0.2l0,0V31c0,0.4,0.2,0.7,0.5,0.9
			c0.3,0.2,0.7,0.3,1.3,0.3l0,0h0.6l0,0l0,0h1c0.2,0,0.5-0.1,0.6-0.2c0.2-0.2,0.2-0.3,0.3-0.5c0.1-0.2,0.2-0.5,0.2-0.7
			c0-0.3,0-0.6,0-0.9l0,0v-8.6c0-1.2,0.6-1.9,1.9-1.9l0,0C204.8,19.5,205.8,19.5,205.8,19.5z M199.6,36.9c0.2,0,0.2,0.1,0.2,0.2l0,0
			v2.2c0,0.2-0.1,0.2-0.2,0.2l0,0h-2.3c-0.2,0-0.2-0.1-0.2-0.2l0,0v-2.2c0-0.2,0.1-0.2,0.2-0.2l0,0H199.6z M196.1,36.9
			c0.2,0,0.2,0.1,0.2,0.2l0,0v2.2c0,0.2-0.1,0.2-0.2,0.2l0,0h-2.3c-0.2,0-0.2-0.1-0.2-0.2l0,0v-0.8c0-0.9,0.7-1.7,1.7-1.7l0,0
			C195.2,36.9,196.1,36.9,196.1,36.9z M141.2,36.9c0.2,0,0.2,0.1,0.2,0.2l0,0v2.2c0,0.2-0.1,0.2-0.2,0.2l0,0h-2.3
			c-0.2,0-0.2-0.1-0.2-0.2l0,0v-0.8c0-0.9,0.7-1.7,1.7-1.7l0,0C140.3,36.9,141.2,36.9,141.2,36.9z M144.8,36.9
			c0.2,0,0.2,0.1,0.2,0.2l0,0v2.2c0,0.2-0.1,0.2-0.2,0.2l0,0h-2.3c-0.2,0-0.2-0.1-0.2-0.2l0,0v-2.2c0-0.2,0.1-0.2,0.2-0.2l0,0H144.8
			z M183.7,19.5c0.2,0,0.2,0.1,0.2,0.2l0,0v15.1c0,0.2-0.1,0.2-0.2,0.2l0,0h-2.8c-0.2,0-0.2-0.1-0.2-0.2l0,0V21.1
			c0-0.9,0.7-1.7,1.7-1.7l0,0L183.7,19.5L183.7,19.5z M161,19.5c0.2,0,0.2,0.1,0.2,0.2l0,0v15.1c0,0.2-0.1,0.2-0.2,0.2l0,0h-2.8
			c-0.2,0-0.2-0.1-0.2-0.2l0,0V21.1c0-0.9,0.7-1.7,1.7-1.7l0,0L161,19.5L161,19.5z M151.5,25c1.3,0,2.3,0.3,3,1c0.7,0.6,1,1.7,1,3.1
			v2c0,0.7-0.1,1.3-0.2,1.9c-0.2,0.5-0.3,0.9-0.6,1.2s-0.6,0.5-1,0.6c-0.4,0.2-1,0.2-1.5,0.2h-5.6c-0.2,0-0.2-0.1-0.2-0.2v-0.9
			c0-0.9,0.7-1.7,1.7-1.7h2.5c0.4,0,0.7,0,0.9-0.1c0.2-0.1,0.4-0.2,0.5-0.2c0.1-0.2,0.2-0.3,0.2-0.5c0-0.2,0.1-0.5,0.1-0.7v-1.3
			c0-0.6-0.2-1-0.5-1.3c-0.3-0.2-0.9-0.4-1.5-0.4h-2.6c-0.2,0-0.2-0.1-0.2-0.2v-2.3c0-0.2,0.1-0.2,0.2-0.2L151.5,25L151.5,25z
			 M210.2,27.7c-0.8,0-1.5,0.1-2.3,0.3c-0.7,0.2-1.4,0.5-2,0.7l0,0v2.5c0,0.3,0,0.6-0.1,0.9l0,0h4.5c0.6,0,1,0,1.3-0.1
			c0.4,0,0.6-0.1,0.9-0.2c0.2-0.2,0.3-0.3,0.4-0.6c0.1-0.2,0.1-0.6,0.1-1.1c0-0.4-0.1-0.8-0.2-1.1c-0.1-0.3-0.2-0.6-0.5-0.8
			c-0.2-0.2-0.6-0.4-0.9-0.5C211.4,27.8,210.9,27.7,210.2,27.7z M173.7,22.7c0.2,0,0.2,0.1,0.2,0.2l0,0v2.2c0,0.2-0.1,0.2-0.2,0.2
			l0,0h-2.3c-0.2,0-0.2-0.1-0.2-0.2l0,0v-0.8c0-0.9,0.7-1.7,1.7-1.7l0,0H173.7z M160.1,13.5c0.5,0,0.9,0.1,1.3,0.2
			c0.3,0.2,0.6,0.4,0.8,0.6c0.1,0.1,0,0.2,0,0.2l-0.7,0.7c-0.1,0.1-0.2,0.1-0.2,0c-0.3-0.3-0.6-0.6-1-0.6c-0.3,0-0.6,0.1-0.7,0.2
			c-0.2,0.2-0.2,0.4-0.2,0.7c0,0.2,0.1,0.5,0.2,0.7c0.2,0.2,0.3,0.3,0.5,0.5h2.3c0.1,0,0.2,0.1,0.2,0.2v1c0,0.1-0.1,0.2-0.2,0.2
			h-5.1c-0.1,0-0.2-0.1-0.2-0.2V18c0-0.6,0.4-1,1-1h0.1c-0.1-0.2-0.2-0.3-0.2-0.6c-0.1-0.2-0.1-0.4-0.1-0.6c0-0.2,0.1-0.6,0.2-0.8
			c0.1-0.2,0.2-0.6,0.5-0.7c0.2-0.2,0.5-0.4,0.8-0.6C159.3,13.6,159.6,13.5,160.1,13.5z">
   </path>
  </g>
 </g>
</svg>