<svg version="1.1" id="Layer_1" xmlns:x="ns_extend;" xmlns:i="ns_ai;" xmlns:graph="ns_graphs;" xmlns="http://www.w3.org/2000/svg" xmlns:xlink="http://www.w3.org/1999/xlink" x="0px" y="0px" viewBox="0 0 183.7 94" style="enable-background:new 0 0 183.7 94;" xml:space="preserve">
 <style type="text/css">
  .st0{fill:#231F20;}
	.st1{enable-background:new    ;}
 </style>
 <metadata>
  <sfw xmlns="ns_sfw;">
   <slices>
   </slices>
   <sliceSourceBounds bottomLeftOrigin="true" height="94" width="183.7" x="-33.9" y="-22">
   </sliceSourceBounds>
  </sfw>
 </metadata>
 <g id="g8" transform="matrix(1.33333 0 0 -1.33333 0 314.667)">
  <g id="g10" transform="scale(.1)">
   <path id="path12" class="st0" d="M22.4,2335.2h1278.7v-446.6H22.4V2335.2z M0,1866h1323.9v491.6H0L0,1866">
   </path>
   <path id="path14" class="st0" d="M354.3,2229.1V1995l18.4-2.4v-13.7h-90.8v13.7l19.6,2.4v106.6H185.2V1995l17.9-2.4v-13.7h-89.3
			v13.7l17.9,2.4v234.1l-17.9,2.4v13.4h89.3v-13.4l-17.9-2.4v-100h116.2v100l-19.6,2.4v13.4h90.8v-13.4L354.3,2229.1">
   </path>
   <path id="path16" class="st0" d="M478.2,1993.3l17.1-2.4v-12h-83.5v12l17.1,2.4v160.4l-17.1,2.4v12h66.4V1993.3">
   </path>
   <path id="path18" class="st0" d="M531.6,1990.5l16.7,2.3v237.9l-16.7,2.4v11.7H598v-252l17.1-2.3v-11.8h-83.5V1990.5">
   </path>
   <path id="path20" class="st0" d="M716.7,2168.2h44.8v-17.7h-44.8v-112.6c0-29.1,6-38.4,32.5-38.4c9.8,0,18.4,0,26.5,2.1v-13
			c-24.1-8.5-44.4-12-61.5-12c-38.4,0-47.2,17.3-47.2,50.4v123.5h-35v17.7h36.3v39.5l48.5,14.5v-54">
   </path>
   <path id="path22" class="st0" d="M986.1,2071.7c0-59-39.9-98.5-102.7-98.5c-60.7,0-99.5,25.8-99.5,98.5
			c0,60.9,39.9,101.7,102.7,101.7C948.7,2173.5,986.1,2136.6,986.1,2071.7 M931.6,2072.9c0,59.8-17.9,85.9-46.8,85.9
			c-28.2,0-46.1-25-46.1-85.9c0-60.2,17.9-85.2,46.1-85.2C914.9,1987.7,931.6,2011.6,931.6,2072.9">
   </path>
   <path id="path24" class="st0" d="M1212.9,1990.9v-12h-83.5v12l16.7,2.4v107.8c0,29.9-11.1,43.3-33.8,43.3
			c-10.5,0-27.3-7.3-39.5-15.8v-135.2l17.1-2.4v-12h-83.9v12l17.1,2.4v159.1l-17.1,2.4v13.4h66.8v-26.3
			c20.7,16.5,40.8,29.9,68.8,29.9c37.4,0,54.2-21.8,54.2-64.7v-114L1212.9,1990.9">
   </path>
   <path id="path26" class="st0" d="M480.7,2218.2c0-14.7-12-26.7-26.9-26.7s-26.9,11.8-26.9,26.7c0,14.7,12,26.7,26.9,26.7
			S480.7,2232.9,480.7,2218.2">
   </path>
   <path id="path28" class="st0" d="M1357.3,2343.1h3.9c2.6,0,3.6,0.8,3.6,2.6s-0.9,2.6-3.6,2.6h-3.9V2343.1L1357.3,2343.1z
			 M1368.3,2345.9c0-2.6-1.1-4.1-3.4-4.9l4.1-6h-3.8l-3.8,5.5h-4.1v-5.5h-3.2v16.2h7.1C1366.2,2351.2,1368.3,2349.5,1368.3,2345.9z
			 M1347.6,2342.9c0-7.3,6-13.5,13.5-13.5c7.3,0,13.5,6,13.5,13.5c0,7.3-6,13.5-13.5,13.5
			C1353.6,2356.4,1347.6,2350.4,1347.6,2342.9z M1378,2342.9c0-9.4-7.7-17.1-17.1-17.1s-17.1,7.7-17.1,17.1s7.7,17.1,17.1,17.1
			C1370.5,2360,1378,2352.5,1378,2342.9">
   </path>
   <path id="path30" class="st0" d="M48.3,1657.3H28.2c-2.3,0-3.4,1.1-3.4,3.4v109.4c0,2.3,1.1,3.4,3.4,3.4h72.6
			c2.3,0,3.4-1.1,3.4-3.4v-17.7c0-2.3-1.1-3.4-3.4-3.4H51.7v-28h37c2.3,0,3.4-1.1,3.4-3.4v-16.4c0-2.3-1.1-3.4-3.4-3.4h-37v-37.8
			C51.7,1658.2,50.6,1657.3,48.3,1657.3">
   </path>
   <path id="path32" class="st0" d="M200.3,1685.3c5.1,3,9,7.1,12,12.4c3,5.3,4.5,11.1,4.5,17.5s-1.5,12.2-4.5,17.5
			c-3,5.3-7.1,9.4-12.2,12.4c-5.1,3-10.5,4.5-16.4,4.5c-5.8,0-11.5-1.5-16.4-4.5c-5.1-3-9-7.1-12-12.4c-3-5.3-4.5-11.1-4.5-17.5
			s1.5-12.2,4.5-17.5c3-5.3,7.1-9.4,12.2-12.4c5.1-3,10.5-4.5,16.4-4.5C189.7,1680.8,195.2,1682.3,200.3,1685.3z M153.3,1663.1
			c-9.2,5.5-16.5,12.6-21.8,21.8c-5.3,9.2-7.9,19.4-7.9,30.5c0,11.1,2.6,21.1,7.9,30.3c5.3,9.2,12.6,16.4,21.8,21.8
			c9.2,5.3,19.4,7.9,30.7,7.9c11.1,0,21.2-2.6,30.5-7.9c9.2-5.3,16.5-12.6,21.8-21.8c5.3-9.2,7.9-19.4,7.9-30.3
			c0-11.1-2.6-21.1-7.9-30.5c-5.3-9.2-12.6-16.5-21.8-21.8c-9.2-5.5-19.4-8.1-30.5-8.1C172.6,1655.2,162.5,1657.8,153.3,1663.1">
   </path>
   <path id="path34" class="st0" d="M326.3,1720.3c2.4,1.5,4.3,3.4,5.6,5.8c1.3,2.4,2.1,5.1,2.1,8.1c0,3.2-0.8,6-2.1,8.5
			c-1.3,2.3-3.2,4.1-5.6,5.3c-2.3,1.1-4.9,1.7-7.9,1.7h-20.3v-31.4H318C321,1718.2,323.8,1718.8,326.3,1720.3L326.3,1720.3z
			 M271.4,1660.5v109.4c0,2.3,1.1,3.4,3.4,3.4h45.9c7.9,0,15-1.7,21.1-4.9c6.2-3.4,10.9-7.9,14.3-13.7c3.4-5.8,5.1-12.6,5.1-20.3
			c0-7.5-1.5-13.9-4.7-19.2c-3.2-5.3-7.5-9.6-13.4-13l20.3-41c0.4-0.8,0.6-1.3,0.6-1.7c0-0.8-0.2-1.1-0.8-1.5
			c-0.6-0.4-1.3-0.6-2.1-0.6h-23.1c-1.9,0-3.2,0.8-3.9,2.4l-16.5,35.5h-19.4v-34.6c0-2.3-1.1-3.4-3.4-3.4h-20.1
			C272.3,1657.3,271.4,1658.2,271.4,1660.5">
   </path>
   <path id="path36" class="st0" d="M498.7,1657.3h-20.1c-2.3,0-3.4,1.1-3.4,3.4v87.8h-29c-2.3,0-3.4,1.1-3.4,3.4v18.4
			c0,2.3,1.1,3.4,3.4,3.4h84.8c2.3,0,3.4-1.1,3.4-3.4v-18.4c0-2.3-1.1-3.4-3.4-3.4h-29.1v-87.8
			C502.1,1658.2,501,1657.3,498.7,1657.3">
   </path>
   <path id="path38" class="st0" d="M589,1657.3h-20.1c-2.3,0-3.4,1.1-3.4,3.4v109.4c0,2.3,1.1,3.4,3.4,3.4H589
			c2.3,0,3.4-1.1,3.4-3.4v-39.5h47.2v39.5c0,2.3,1.1,3.4,3.4,3.4h20.3c2.3,0,3.4-1.1,3.4-3.4v-109.4c0-2.3-1.1-3.4-3.4-3.4h-20.3
			c-2.3,0-3.4,1.1-3.4,3.4v44.4h-47.2v-44.4C592.2,1658.2,591.2,1657.3,589,1657.3">
   </path>
   <path id="path40" class="st0" d="M788.3,1657.3h-78.4c-2.3,0-3.4,1.1-3.4,3.4v109.4c0,2.3,1.1,3.4,3.4,3.4h77.3
			c2.3,0,3.4-1.1,3.4-3.4v-17.9c0-2.3-1.1-3.4-3.4-3.4h-53.8V1728h41.4c2.3,0,3.4-1.1,3.4-3.4v-16.4c0-2.3-1.1-3.4-3.4-3.4h-41.4
			v-23.5h54.9c2.3,0,3.4-1.1,3.4-3.4v-17.9C791.5,1658.2,790.4,1657.3,788.3,1657.3">
   </path>
   <path id="path42" class="st0" d="M896.2,1660.3c-7.7,3.4-14.5,8.3-20.3,14.7c-0.8,0.8-0.9,1.5-0.9,2.3c0,0.8,0.4,1.7,1.3,2.4
			l12.8,12.2c0.8,0.8,1.5,1.1,2.3,1.1c0.9,0,1.7-0.4,2.4-1.3c3.8-3.8,7.9-6.8,12.6-8.7c4.7-1.9,9.6-3,14.5-3c5.3,0,9.4,0.9,12.2,3
			c2.8,1.9,4.3,4.7,4.3,8.1c0,2.3-0.6,4.3-1.9,5.8c-1.3,1.7-3.6,3.2-6.8,4.5c-3.2,1.5-7.7,3-13.5,4.7c-9.6,2.8-17.9,7-25,12.6
			c-7,5.6-10.5,13.4-10.5,23.5c0,6,1.5,11.5,4.7,16.5c3,5.1,7.7,9,13.9,12c6.2,3,13.7,4.5,22.6,4.5c7.5,0,14.7-1.3,21.6-3.9
			c6.8-2.6,13-6.2,18.4-10.9c0.8-0.8,1.3-1.5,1.3-2.3c0-0.8-0.4-1.5-0.9-2.3l-11.7-13.2c-0.8-0.9-1.5-1.3-2.4-1.3
			c-0.8,0-1.5,0.4-2.3,0.9c-3.2,2.4-6.8,4.5-10.9,6.2s-8.1,2.4-12,2.4c-4.5,0-8.1-0.8-10.5-2.3c-2.6-1.5-3.8-3.8-3.8-6.6
			c0-2.3,0.8-4.1,2.3-5.8c1.5-1.5,3.4-2.8,5.8-3.9c2.4-1.1,6.2-2.4,11.1-3.9c0.2,0,0.9-0.2,2.1-0.8c7.9-2.6,14.5-5.5,19.7-8.5
			s9.2-6.8,12.2-11.3c3-4.5,4.3-10,4.3-16.4c0-7.3-1.9-13.7-5.5-19.2c-3.6-5.5-8.7-9.8-15-12.8c-6.6-3-13.9-4.5-22.6-4.5
			C912.4,1655.2,904,1656.9,896.2,1660.3">
   </path>
   <path id="path44" class="st0" d="M1041.2,1657.3h-20.1c-2.3,0-3.4,1.1-3.4,3.4v87.8h-29c-2.3,0-3.4,1.1-3.4,3.4v18.4
			c0,2.3,1.1,3.4,3.4,3.4h84.8c2.3,0,3.4-1.1,3.4-3.4v-18.4c0-2.3-1.1-3.4-3.4-3.4h-29.1v-87.8
			C1044.6,1658.2,1043.5,1657.3,1041.2,1657.3">
   </path>
   <path id="path46" class="st0" d="M1154.4,1699.6l-13.2,37.2l-1.3,4.7l-1.1-4.7l-13.2-37.2H1154.4z M1195.4,1659.5
			c0-0.8-0.2-1.3-0.8-1.7c-0.6-0.4-1.1-0.6-2.1-0.6h-20.7c-1.9,0-3.2,0.9-3.8,2.8l-6.2,17.1h-44.2l-6-17.1c-0.6-1.9-1.9-2.8-3.8-2.8
			h-20.7c-0.9,0-1.5,0.2-2.1,0.6c-0.6,0.4-0.8,0.9-0.8,1.7c0,0.4,0,0.9,0.2,1.3l42.7,109.8c0.8,1.7,1.9,2.6,3.8,2.6h17.9
			c1.9,0,3.2-0.9,3.9-2.6l42.3-109.8C1195.4,1660.5,1195.4,1660.1,1195.4,1659.5">
   </path>
   <path id="path48" class="st0" d="M1261.1,1657.3h-20.3c-2.3,0-3.4,1.1-3.4,3.4v41.9l-38.2,66.9c-0.4,0.8-0.6,1.3-0.6,1.9
			c0,0.8,0.2,1.1,0.8,1.5c0.6,0.4,1.1,0.6,2.1,0.6h23.9c1.9,0,3.2-0.8,3.9-2.4l21.8-43.4l21.2,43.4c0.8,1.7,2.1,2.4,3.9,2.4h23.9
			c0.9,0,1.5-0.2,2.1-0.6c0.6-0.4,0.8-0.9,0.8-1.5c0-0.6-0.2-1.1-0.6-1.9l-38-66.8v-42.1C1264.5,1658.2,1263.3,1657.3,1261.1,1657.3
			">
   </path>
   <g id="g50">
    <g class="st1">
     <path d="M1316.2,1772.2c0,0.2,0.1,0.3,0.2,0.5c0.1,0.1,0.3,0.2,0.5,0.2h15.4c0.2,0,0.3-0.1,0.5-0.2c0.1-0.1,0.2-0.3,0.2-0.5
					v-3.6c0-0.2-0.1-0.3-0.2-0.5c-0.1-0.2-0.3-0.2-0.5-0.2h-4.9v-15.7c0-0.2-0.1-0.3-0.2-0.5s-0.3-0.2-0.5-0.2h-4.2
					c-0.2,0-0.3,0.1-0.5,0.2c-0.1,0.1-0.2,0.3-0.2,0.5v15.7h-4.9c-0.2,0-0.4,0.1-0.5,0.2c-0.1,0.1-0.2,0.3-0.2,0.5V1772.2z">
     </path>
    </g>
    <g class="st1">
     <g>
      <path d="M1336.3,1772.2c0,0.2,0.1,0.3,0.2,0.4c0.1,0.1,0.3,0.2,0.5,0.2h5c0.4,0,0.6-0.2,0.7-0.5l3.9-13l3.9,13
						c0.1,0.4,0.4,0.5,0.7,0.5h4.9c0.2,0,0.3-0.1,0.5-0.2c0.1-0.1,0.2-0.3,0.2-0.4c0.3-3.4,0.7-6.7,1-10c0.4-3.3,0.7-6.6,1-10v-0.1
						c0-0.4-0.2-0.6-0.6-0.6h-4.1c-0.4,0-0.7,0.2-0.7,0.6l-1.2,11.1l-3.2-11.1c0-0.1-0.1-0.2-0.2-0.3c-0.1-0.1-0.2-0.2-0.4-0.2h-3.8
						c-0.1,0-0.2,0.1-0.4,0.2c-0.1,0.1-0.2,0.2-0.2,0.4l-3.2,11.1l-1.2-11c0-0.4-0.2-0.6-0.7-0.6h-4.1c-0.4,0-0.6,0.2-0.6,0.6
						L1336.3,1772.2z">
      </path>
     </g>
    </g>
   </g>
  </g>
 </g>
</svg>