<?xml version="1.0" encoding="iso-8859-1"?>
<!-- Generator: Adobe Illustrator 25.2.3, SVG Export Plug-In . SVG Version: 6.00 Build 0)  -->
<svg version="1.1" xmlns="http://www.w3.org/2000/svg" xmlns:xlink="http://www.w3.org/1999/xlink" x="0px" y="0px"
	 viewBox="0 0 1146.091 382.331" style="enable-background:new 0 0 1146.091 382.331;" xml:space="preserve">
<g id="Guides">
	<rect style="fill:none;" width="117.168" height="117.168"/>
	<rect x="1028.925" y="265.164" style="fill:none;" width="117.168" height="117.168"/>
</g>
<g id="Brandmark">
	<g>
		<g>
			<g>
				<polygon points="323.307,119.547 301.684,119.547 301.684,182.56 223.574,182.56 223.574,119.547 202.128,119.547 
					202.128,262.783 223.574,262.783 223.574,197.343 301.684,197.343 301.684,262.783 323.307,262.783 				"/>
				<rect x="117.167" y="119.548" width="21.407" height="143.236"/>
				<path d="M476.86,193.853v55.517c-6.057,4.112-16.225,7.355-27.696,7.355c-33.534,0-56.471-29.644-56.471-67.074
					c0-35.27,20.121-64.261,53.662-64.261c23.15,0,36.35,10.818,46.084,22.934h1.083v-24.883c-6.925-1.73-26.181-6.275-46.303-6.275
					c-48.682,0-78.326,35.485-78.326,74.432c0,42.622,32.023,73.564,78.76,73.564c23.15,0,41.108-8.87,50.845-11.683v-59.628H476.86
					z"/>
			</g>
			<g>
				<path d="M503.889,129.636c0-4.763,3.796-8.596,8.598-8.596c4.879,0,8.596,3.794,8.596,8.557c0,4.841-3.794,8.559-8.596,8.559
					C507.724,138.156,503.889,134.477,503.889,129.636z M519.535,129.597c0-4.22-2.943-7.163-7.048-7.163
					c-4.105,0-7.048,2.982-7.048,7.203c0,4.261,3.098,7.126,7.048,7.126C516.475,136.762,519.535,133.819,519.535,129.597z
					 M509.544,125.26h2.982c1.974,0,3.252,0.813,3.252,2.556v0.039c0,1.278-0.737,1.974-1.743,2.285l2.246,3.6h-1.935l-2.052-3.291
					h-0.891v3.291h-1.859V125.26z M512.487,129.171c0.968,0,1.472-0.426,1.472-1.239v-0.037c0-0.891-0.543-1.202-1.472-1.202h-1.085
					v2.478H512.487z"/>
			</g>
		</g>
		<path d="M575.73,119.679h6.946v24.124h40.929v-24.124h6.946v53.402h-6.946v-23.676h-40.929v23.676h-6.946V119.679z"/>
		<path d="M645.334,146.716v-0.597c0-15.162,13.817-27.112,35.103-27.112c21.286,0,35.103,11.95,35.103,26.962v0.597
			c0,15.087-13.818,27.186-34.879,27.186C659.152,173.753,645.334,161.653,645.334,146.716z M708.296,146.492v-0.597
			c0-11.876-10.232-21.585-27.858-21.585c-17.776,0-27.858,9.112-27.858,21.734v0.597c0,12.846,11.502,21.659,28.083,21.659
			C697.69,168.3,708.296,159.338,708.296,146.492z"/>
		<path d="M743.321,125.056h-21.958v-5.377h50.862v5.377h-21.958v48.024h-6.946V125.056z"/>
		<path d="M785.367,119.679h44.962v5.377h-38.016v18h32.041v5.378h-32.041v19.269h39.808v5.377h-46.754V119.679z"/>
		<path d="M845.86,119.679h6.946v48.024h34.431v5.377H845.86V119.679z"/>
		<path d="M895.675,156.798h6.796c1.12,6.573,6.125,11.651,20.39,11.651c11.427,0,17.85-3.884,17.85-10.382
			c0-6.273-4.705-8.29-19.344-10.008c-14.714-1.718-22.929-5.228-22.929-14.788c0-8.216,8.589-14.266,22.63-14.266
			c13.892,0,22.78,4.929,24.199,14.714h-6.348c-1.643-6.946-7.469-9.411-17.85-9.411c-11.278,0-16.133,3.436-16.133,8.813
			c0,4.78,3.51,7.543,18.448,9.261c15.685,1.792,24.049,4.929,24.049,15.46c0,9.261-9.112,15.908-24.572,15.908
			C904.936,173.753,897.019,166.209,895.675,156.798z"/>
		<path d="M575.73,209.249h25.393c11.876,0,21.884,4.407,21.884,15.685v0.299c0,9.261-7.842,13.892-15.311,15.236l19.568,22.182
			h-8.365l-19.12-21.659h-17.104v21.659h-6.946V209.249z M601.572,235.763c8.888,0,14.489-3.66,14.489-10.456v-0.299
			c0-7.618-6.05-10.456-14.489-10.456h-18.896v21.211H601.572z"/>
		<path d="M642.497,209.249h44.962v5.377h-38.016v18h32.041v5.378h-32.041v19.269h39.808v5.377h-46.754V209.249z"/>
		<path d="M701.048,246.369h6.796c1.12,6.573,6.125,11.651,20.39,11.651c11.427,0,17.85-3.884,17.85-10.382
			c0-6.273-4.705-8.29-19.344-10.008c-14.714-1.718-22.929-5.228-22.929-14.788c0-8.216,8.589-14.266,22.63-14.266
			c13.892,0,22.78,4.929,24.199,14.714h-6.348c-1.643-6.946-7.469-9.411-17.85-9.411c-11.278,0-16.133,3.436-16.133,8.813
			c0,4.78,3.51,7.543,18.448,9.261c15.685,1.792,24.049,4.929,24.049,15.46c0,9.261-9.112,15.908-24.572,15.908
			C710.309,263.323,702.393,255.78,701.048,246.369z"/>
		<path d="M766.247,236.286v-0.597c0-15.162,13.817-27.112,35.103-27.112c21.286,0,35.103,11.95,35.103,26.962v0.597
			c0,15.087-13.818,27.186-34.879,27.186C780.064,263.323,766.247,251.224,766.247,236.286z M829.208,236.062v-0.597
			c0-11.876-10.232-21.585-27.858-21.585c-17.775,0-27.858,9.112-27.858,21.734v0.597c0,12.846,11.502,21.659,28.083,21.659
			C818.603,257.871,829.208,248.908,829.208,236.062z"/>
		<path d="M853.777,209.249h25.394c11.875,0,21.883,4.407,21.883,15.685v0.299c0,9.261-7.842,13.892-15.311,15.236l19.568,22.182
			h-8.365l-19.12-21.659h-17.104v21.659h-6.946V209.249z M879.619,235.763c8.888,0,14.489-3.66,14.489-10.456v-0.299
			c0-7.618-6.05-10.456-14.489-10.456h-18.896v21.211H879.619z"/>
		<path d="M935.78,214.627h-21.958v-5.377h50.862v5.377h-21.958v48.024h-6.946V214.627z"/>
		<path d="M974.392,246.369h6.796c1.12,6.573,6.125,11.651,20.39,11.651c11.427,0,17.85-3.884,17.85-10.382
			c0-6.273-4.705-8.29-19.344-10.008c-14.714-1.718-22.929-5.228-22.929-14.788c0-8.216,8.589-14.266,22.63-14.266
			c13.892,0,22.78,4.929,24.199,14.714h-6.348c-1.643-6.946-7.469-9.411-17.85-9.411c-11.278,0-16.133,3.436-16.133,8.813
			c0,4.78,3.51,7.543,18.448,9.261c15.685,1.792,24.049,4.929,24.049,15.46c0,9.261-9.112,15.908-24.572,15.908
			C983.653,263.323,975.736,255.78,974.392,246.369z"/>
		<g>
			<path d="M1013.918,165.754c-3.915,4.411-9.657,7.849-17.421,7.849c-10.961,0-18.204-5.308-18.204-14.279
				c0-8.522,6.59-13.157,13.376-15.699c-3.523-3.139-5.872-6.877-5.872-11.886c0-8.224,6.72-12.858,14.289-12.858
				c8.091,0,13.506,5.233,13.506,12.41c0,5.308-4.176,10.466-12.332,13.68l12.984,13.157l8.417-12.634h5.742l-10.701,16.148
				l11.223,11.438h-7.895L1013.918,165.754z M996.628,168.445c6.264,0,10.961-2.467,14.158-5.906l-15.398-15.774
				c-6.329,2.318-10.961,5.831-10.961,12.185C984.427,164.782,988.733,168.445,996.628,168.445z M997.737,141.907
				c7.503-3.215,10.309-6.504,10.309-10.765c0-4.111-2.936-7.326-8.091-7.326c-4.763,0-8.547,2.691-8.547,7.999
				C991.408,135.851,994.148,138.991,997.737,141.907z"/>
		</g>
	</g>
</g>
</svg>
