<?xml version="1.0" encoding="UTF-8"?>
<svg xmlns="http://www.w3.org/2000/svg" xmlns:xlink="http://www.w3.org/1999/xlink" width="164px" height="26px" viewBox="0 0 164 26" version="1.1">
<g id="surface1">
<path style=" stroke:none;fill-rule:nonzero;fill:rgb(3.921569%,11.372549%,23.921569%);fill-opacity:1;" d="M 19.863281 10.496094 C 19.757812 10.496094 19.667969 10.496094 19.617188 10.503906 C 19.558594 10.597656 19.472656 10.726562 19.34375 10.90625 C 21.34375 10.90625 23.160156 11.054688 25.171875 11.378906 L 24.601562 11.871094 C 22.789062 11.582031 21.28125 11.464844 19.363281 11.464844 C 19.082031 11.464844 19.023438 11.464844 18.957031 11.46875 C 18.890625 11.558594 18.738281 11.734375 18.589844 11.898438 C 18.757812 11.886719 19.089844 11.882812 19.542969 11.882812 C 21.125 11.882812 22.597656 11.988281 24.199219 12.21875 L 23.632812 12.714844 C 22.414062 12.546875 20.925781 12.445312 19.589844 12.445312 C 19.113281 12.445312 18.574219 12.460938 18.089844 12.488281 C 17.980469 12.601562 17.695312 12.875 17.609375 12.960938 C 18.25 12.902344 18.953125 12.875 19.792969 12.875 C 20.988281 12.875 22.125 12.945312 23.207031 13.089844 L 22.636719 13.578125 C 21.871094 13.492188 20.9375 13.441406 20.113281 13.441406 C 17.984375 13.441406 16.308594 13.859375 14.574219 14.8125 C 16.226562 16.40625 18.933594 17.414062 21.554688 17.414062 L 21.800781 17.414062 L 20.882812 18.210938 C 17.101562 17.574219 13.121094 16.074219 9.757812 14.027344 C 6.523438 12.0625 5.394531 11.480469 2.867188 10.476562 L 2.851562 9.894531 L 4.558594 10.554688 L 5.140625 10.136719 L 10.71875 12.4375 L 10.355469 12.699219 L 7.492188 11.578125 L 7.210938 11.777344 L 8.695312 12.523438 C 9.953125 13.152344 10.90625 13.433594 11.789062 13.433594 C 13.722656 13.433594 15.453125 12.203125 16.574219 10.039062 C 17.414062 9.9375 18.3125 9.894531 19.390625 9.894531 C 21.605469 9.894531 23.753906 10.085938 26.1875 10.496094 L 25.59375 11.011719 C 24.082031 10.726562 21.507812 10.496094 19.863281 10.496094 M 14.441406 24.816406 C 7.1875 24.816406 1.304688 19.523438 1.304688 12.996094 C 1.304688 6.46875 7.1875 1.171875 14.441406 1.171875 C 21.695312 1.171875 27.582031 6.46875 27.582031 12.996094 C 27.582031 19.523438 21.695312 24.816406 14.441406 24.816406 M 14.441406 0.417969 C 6.714844 0.417969 0.464844 6.042969 0.464844 12.996094 C 0.464844 19.949219 6.714844 25.574219 14.441406 25.574219 C 22.171875 25.574219 28.421875 19.949219 28.421875 12.996094 C 28.421875 6.042969 22.171875 0.417969 14.441406 0.417969 M 51.371094 18.003906 L 59.382812 18.003906 L 59.382812 21.378906 L 47.054688 21.378906 L 47.054688 4.613281 L 51.371094 4.613281 Z M 69.074219 9.308594 L 73.09375 9.308594 L 73.09375 21.378906 L 69.3125 21.378906 L 69.3125 19.992188 C 68.753906 20.925781 67.609375 21.738281 65.507812 21.738281 C 62.070312 21.738281 60.289062 20.351562 60.289062 16.375 L 60.289062 9.308594 L 64.308594 9.308594 L 64.308594 16.207031 C 64.308594 17.8125 65.082031 18.53125 66.703125 18.53125 C 68.167969 18.53125 69.074219 17.8125 69.074219 16.207031 Z M 76.183594 8.851562 C 76.183594 5.929688 78.234375 4.371094 81.453125 4.371094 C 82.492188 4.371094 83.15625 4.515625 83.15625 4.515625 L 83.15625 7.4375 C 83.15625 7.4375 82.597656 7.390625 82.121094 7.390625 C 80.867188 7.390625 80.203125 7.773438 80.203125 8.828125 L 80.203125 9.308594 L 83.15625 9.308594 L 83.15625 12.253906 L 80.203125 12.253906 L 80.203125 21.378906 L 76.183594 21.378906 L 76.183594 12.253906 L 74.160156 12.253906 L 74.160156 9.308594 L 76.183594 9.308594 L 76.183594 8.851562 M 90.238281 9.308594 L 93.300781 9.308594 L 93.300781 12.253906 L 90.238281 12.253906 L 90.238281 16.949219 C 90.238281 18.242188 90.984375 18.578125 92.15625 18.578125 C 92.636719 18.578125 93.300781 18.507812 93.300781 18.507812 L 93.300781 21.40625 C 93.300781 21.40625 92.367188 21.597656 91.382812 21.597656 C 88.164062 21.597656 86.21875 20.277344 86.21875 17.355469 L 86.21875 12.253906 L 84.195312 12.253906 L 84.195312 9.308594 L 86.21875 9.308594 L 86.21875 5.785156 L 90.238281 5.785156 Z M 102.199219 8.949219 C 105.609375 8.949219 107.394531 10.335938 107.394531 14.3125 L 107.394531 21.378906 L 103.371094 21.378906 L 103.371094 14.480469 C 103.371094 12.875 102.601562 12.15625 100.921875 12.15625 C 99.40625 12.15625 98.5 12.875 98.5 14.480469 L 98.5 21.378906 L 94.480469 21.378906 L 94.480469 4.636719 L 98.527344 4.636719 L 98.527344 10.480469 C 99.21875 9.59375 100.3125 8.949219 102.199219 8.949219 M 117.640625 16.683594 C 117.640625 18.003906 116.257812 18.984375 114.128906 18.984375 C 113.089844 18.984375 112.476562 18.554688 112.476562 17.738281 C 112.476562 17.117188 112.902344 16.589844 114.261719 16.421875 L 116.578125 16.132812 C 116.976562 16.085938 117.402344 16.015625 117.640625 15.941406 Z M 115.40625 8.949219 C 111.441406 8.949219 109.523438 10.3125 109.363281 12.875 L 113.277344 12.875 C 113.328125 12.207031 113.753906 11.703125 115.40625 11.703125 C 116.871094 11.703125 117.5625 12.132812 117.5625 12.78125 C 117.5625 13.355469 117.164062 13.570312 116.179688 13.667969 L 113.621094 13.90625 C 110.160156 14.242188 108.589844 15.535156 108.589844 17.882812 C 108.589844 20.0625 110.082031 21.738281 113.25 21.738281 C 115.40625 21.738281 116.683594 21.117188 117.800781 19.871094 L 117.800781 21.378906 L 121.476562 21.378906 L 121.476562 13.453125 C 121.476562 10.121094 119.320312 8.949219 115.40625 8.949219 M 130.773438 8.949219 C 134.261719 8.949219 136.042969 10.335938 136.042969 14.3125 L 136.042969 21.378906 L 132.023438 21.378906 L 132.023438 14.480469 C 132.023438 12.875 131.25 12.15625 129.574219 12.15625 C 128.054688 12.15625 127.152344 12.875 127.152344 14.480469 L 127.152344 21.378906 L 123.132812 21.378906 L 123.132812 9.308594 L 126.910156 9.308594 L 126.910156 10.695312 C 127.472656 9.761719 128.617188 8.949219 130.773438 8.949219 M 144.523438 13.8125 C 147.933594 14.21875 149.636719 15.175781 149.636719 17.691406 C 149.636719 20.230469 147.640625 21.738281 143.40625 21.738281 C 138.800781 21.738281 137.175781 20.085938 137.097656 17.667969 L 141.0625 17.667969 C 141.167969 18.554688 141.863281 18.984375 143.40625 18.984375 C 144.976562 18.984375 145.617188 18.648438 145.617188 17.980469 C 145.617188 17.355469 145.082031 17.070312 143.699219 16.902344 L 142.289062 16.734375 C 139.332031 16.375 137.628906 15.34375 137.628906 12.949219 C 137.628906 10.648438 139.519531 8.949219 143.484375 8.949219 C 147.160156 8.949219 149.128906 10.265625 149.316406 12.875 L 145.402344 12.875 C 145.269531 12.183594 144.84375 11.75 143.484375 11.75 C 142.15625 11.75 141.648438 12.15625 141.648438 12.683594 C 141.648438 13.210938 141.96875 13.5 143.113281 13.644531 L 144.523438 13.8125 M 159.699219 16.683594 C 159.699219 18.003906 158.316406 18.984375 156.183594 18.984375 C 155.148438 18.984375 154.535156 18.554688 154.535156 17.738281 C 154.535156 17.117188 154.960938 16.589844 156.316406 16.421875 L 158.632812 16.132812 C 159.035156 16.085938 159.460938 16.015625 159.699219 15.941406 Z M 157.460938 8.949219 C 153.496094 8.949219 151.578125 10.3125 151.417969 12.875 L 155.332031 12.875 C 155.386719 12.207031 155.8125 11.703125 157.460938 11.703125 C 158.925781 11.703125 159.621094 12.132812 159.621094 12.78125 C 159.621094 13.355469 159.21875 13.570312 158.234375 13.667969 L 155.679688 13.90625 C 152.21875 14.242188 150.648438 15.535156 150.648438 17.882812 C 150.648438 20.0625 152.136719 21.738281 155.304688 21.738281 C 157.460938 21.738281 158.742188 21.117188 159.859375 19.871094 L 159.859375 21.378906 L 163.53125 21.378906 L 163.53125 13.453125 C 163.53125 10.121094 161.375 8.949219 157.460938 8.949219 "/>
</g>
</svg>
