<svg version="1.1" id="Layer_1" xmlns="http://www.w3.org/2000/svg" xmlns:xlink="http://www.w3.org/1999/xlink" x="0px" y="0px" viewBox="0 0 249.4 44" style="enable-background:new 0 0 249.4 44;" xml:space="preserve">
 <style type="text/css">
  .st0{fill-rule:evenodd;clip-rule:evenodd;fill:#DC2C2B;}
 </style>
 <g id="_x31_170">
  <g id="Main-Page" transform="translate(-135.000000, -20.000000)">
   <g id="Header">
    <g id="logo-pegasus" transform="translate(135.000000, 20.000000)">
     <g id="a">
      <path id="path-1_1_" class="st0" d="M227.3,2.9c3-1.7,6.2-2.9,9.8-2.9c2.1,0,4.3,0.4,6.8,1.3c6.9,2.5,4.2,2,4.7,2.2
						c0.5,0.2,1,0.6,0.5,1.8c-0.5,1.3-0.9,3.8-1.4,4.3c-0.5,0.6-1.2,0.5-1.8-0.3c-0.6-0.8-2.3-3.6-4.2-4.1c-1.9-0.5-4.4-2-8.4,0.2
						c-3.9,2.1-0.4,9.2,1.2,10.5c1.5,1.3,6.6,8.7,7,10.7c0.4,1.9,1.7,7.2-2.4,10.8c-4.1,3.6-6.9,5.7-15.5,5.9c0,0-2.5-0.1-3.6-0.4
						c-1.1-0.3-1-0.8-2.2-0.8c-1.1,0-2.5,0.2-3,0.1c-0.4-0.1-0.9-0.3-0.7-1c0.2-0.7,1.4-3.1,1.4-3.1s0.4-1,1.2-1.6
						c0.8-0.6,0.4-0.5,1.4,1c1,1.5,2.2,1.8,2.9,2.1c0.7,0.3,4.6,0.5,6.2-0.1c1.6-0.6,3.1-2.3,3.2-3.6c0.1-1.2,0.2-2.8-3.1-6.3
						c-3.2-3.5-6.8-8.7-6.9-13.3C220.4,11.7,222.6,5.4,227.3,2.9L227.3,2.9z M160.9,1.8c2-0.8,3.8-1.1,5.3-1.1
						c1.9,0,3.5,0.4,4.7,0.7c2.1,0.4,3.9,1.4,5.1,1.8c1.2,0.4,1.1,0.4,2.3,1.1c1.1,0.7,0.3,1.9,0.3,1.9s-0.7,2.3-1.1,3.3
						c-0.4,1-0.3,1.4-1,1.3c-0.1,0-0.2,0-0.3,0c-0.3,0-0.3,0-1.4-1.8c-1.4-2.2-3.6-4-8.3-3.9c-4.7,0.1-5.3,3.3-5.1,5.8
						c0.1,2.5,3.9,7.4,5.9,10.1c2,2.7,4.1,6.2,4.5,8.8c0.5,2.6-0.4,5.6-2.3,8.1c-1.9,2.5-6.6,4.6-8.4,5.2c-1.8,0.6-6.9,1-8.2,1
						c-1.3-0.1-3.7-0.8-4.4-1.1c-0.4-0.1-1.3-0.1-2.2,0c-0.7,0-1.3,0.1-1.7,0c-0.9-0.1-0.4-1.8-0.4-1.8l1.6-3.2l-14.5,0.3
						c-0.7-0.2-0.3-1.1,0.3-2c0.6-0.9,0.3-2.3,0.3-2.3l-2.7-10.5l-10,0.2c0,0-7.5,12.2-8,13c-0.5,0.8-0.2,0.8-0.2,0.8
						c1.1,1-0.4,1.1-0.4,1.1l-5.9,0.1c-0.8-0.2-0.3-1.1,0.3-1.6c0.6-0.5,1.3-1.8,1.3-1.8l19.9-32.4c0,0,11.2-0.3,11.8-0.2
						c0.6,0.1,0.6,1.1,0.3,1.7c-0.3,0.6-0.1,0.9-0.1,0.9s6.8,29.1,7.1,29.8c0.3,0.7,0,0.8,0.9,1.1c0.9,0.3,0.6,1,0.6,1
						c0.5-0.7,1.8,1.9,2.2,2.5c0.4,0.6,2.2,0.9,3.4,1.2c1.2,0.3,3.8,0.1,6.2-1.4c2.4-1.5,2.1-3.7,1.1-5.8c-0.9-2.1-5.8-6.9-7.2-9.3
						c-1.4-2.4-3.6-8.6-0.9-14.2S156.2,3.7,160.9,1.8L160.9,1.8z M126.1,12.1l-4.6,7.2l6.3-0.1L126.1,12.1L126.1,12.1z M85.3,5.7
						c5-2.8,8.8-3.9,13-3.9c0.2,0,0.5,0,0.7,0c4.5,0.1,6.1,0.2,8.1,0.9c1.9,0.6,2.6,1,3.6,1.1c0.2,0,0.4,0,0.7,0
						c0.8,0,1.5-0.1,1,1.4C111.7,7.2,110,9,109.5,9c-0.5,0-0.4,0.2-1-0.4c-0.6-0.7-2.4-3-4-3.3c-1.6-0.3-5.4-0.3-7.9,0.8
						s-6.2,4.2-8.3,7.5c-2.2,3.3-4.4,7.8-4.9,10.8c-0.6,3-1.3,6.8,0.1,8.7c1.5,1.9,3.9,1.9,4.9,1.6c1-0.2,4.7-2.5,6-4.7
						c1.4-2.2,2.7-5.4,3-6.1c0.3-0.7,0.2-1.3-0.2-1.7c-0.4-0.4-1-0.9-1-1.3c0-0.5,0.3-1.1,0.3-1.1l13.1-0.3c0,0,1.3,1,0,2.4
						c0,0-1.4,1.1-1.8,1.9c-0.4,0.8-2,5.7-2.1,6.4c-0.2,0.7-1,5.2-2.3,6.9c-1.3,1.6-1.1,1.6-1.1,1.6l-7.7,0.2c0,0,0.4-1.8-1.5-0.9
						c-1.9,0.9-5.3,2.4-7.2,2.4c-1.9,0-6.2-1.1-7.8-2.1c-1.5-1-4-3.3-5-5.8c-1-2.5-1.3-7.4,1-12.6C76.3,14.6,80.1,8.7,85.3,5.7z
						 M207.4,2.7l13.8-0.3c0,0,1.9,0.2,0.7,2c0,0-7.4,16.7-8.1,18.1c-0.8,1.4-4.4,10-9.1,12.7c-4.7,2.7-8.5,4.4-13.2,4.9
						c-5,0.5-10.6,0-14.7-4c-4-4-1.6-11.9-0.5-14.9c1.1-2.9,5.8-15.1,5.8-15.1s0.4-0.4,0.1-1c-0.3-0.5-0.5-1.9,0.5-2.2
						c1-0.2,1.5,0,1.5,0l13-0.3c0,0,2,0.4,0,2.3c0,0-0.5-0.2-1.4,2.6c-0.9,2.8-8.5,21.4-8.5,21.4s-1.7,5,0.7,6.1
						c2.1,1.1,4.7,0.4,6.1-1.6C195.5,31.7,207.4,2.7,207.4,2.7z M51,3.9c0,0,20.6-0.5,24.8-0.5c0.3,0,0.5,0,0.6,0
						c1.9,0.1,1,1.7,1,1.7s-0.6,1.2-1.1,2.1c-0.5,0.9-1.6,0-1.6,0c-0.6-0.7-0.9-0.4-0.9-0.4L63.5,7l-4.8,11.8c0,0,8.3-0.2,9.3-0.2
						c0.9,0,1.1-1.2,1.1-1.2c1.9-1.2,1.4,1.7,1,3.6c-0.4,1.9-1.1,2.7-1.8,2.7c-0.7,0-0.9-0.9-1.1-1.6c-0.1-0.7-0.7-0.8-0.7-0.8
						l-8.8,0.2l-5.9,13.8c0,0,16.3-0.2,16.4-0.3c0.4-0.5,0.9-1.4,0.9-1.4c2.2-1,1.8,0.7,1.6,2.5c-0.2,1.9-2.2,3.6-2.2,3.6l-31.7,0.6
						c-1.1,0-0.8-0.9-0.8-0.9S48.6,9.2,49.2,7.8c0.6-1.4-0.8-1.5-1.4-1.9c-0.6-0.5,0.7-1.9,0.7-1.9L51,3.9L51,3.9z M11.7,4.1
						l28.1-0.5c0,0,4.3,1.4,4.9,6.6c0.6,5.2-2.1,10.5-6.1,12.7c-4.1,2.1-6.7,2.6-9.8,2.7l-8.9,0.2l-4.7,11.5c0,0,2,1.8-0.1,2.6
						L0.4,40.1c0,0-0.6-0.3-0.2-1.1C0.5,38.2,12.7,8.7,12.7,8.7s1.3-0.9,0.1-2.1c0,0-1.4-0.8-1.5-0.9C10.6,5.2,11.7,4.1,11.7,4.1z
						 M21.6,21.2c0,0,0.4,0.1,1.1,0.1c1.1,0,2.8-0.2,4.2-1c1.3-0.8,3.4-2.6,4.2-4.8c0.6-1.7,1.4-4,0.2-5.8c-0.9-1.4-1.4-1.8-3-2.1
						c-0.8-0.2-1.3,0-1.3,0L21.6,21.2z">
      </path>
     </g>
    </g>
   </g>
  </g>
 </g>
</svg>