<?xml version="1.0" encoding="UTF-8"?>
<svg xmlns="http://www.w3.org/2000/svg" xmlns:xlink="http://www.w3.org/1999/xlink" width="164px" height="26px" viewBox="0 0 164 26" version="1.1">
<g id="surface1">
<path style=" stroke:none;fill-rule:nonzero;fill:rgb(31.37255%,34.901962%,40.392157%);fill-opacity:1;" d="M 30.046875 23.203125 C 29.699219 23.214844 29.359375 23.226562 29.007812 23.226562 C 28.613281 23.226562 28.226562 23.207031 27.832031 23.203125 L 28.984375 21.628906 Z M 31.328125 24.988281 C 31.53125 24.980469 31.847656 24.949219 32.164062 24.949219 C 32.480469 24.949219 32.875 24.980469 33.046875 24.988281 C 32.535156 24.367188 31.789062 23.398438 31.359375 22.84375 C 30.953125 22.308594 30.273438 21.414062 29.734375 20.535156 C 29.609375 20.554688 29.492188 20.570312 29.371094 20.570312 C 29.234375 20.570312 29.121094 20.554688 28.996094 20.535156 C 28.726562 21.058594 28.066406 21.890625 26.925781 23.335938 L 25.613281 24.988281 C 25.773438 24.972656 25.933594 24.949219 26.125 24.949219 C 26.304688 24.949219 26.519531 24.972656 26.667969 24.988281 C 26.847656 24.621094 27.210938 24.089844 27.570312 23.597656 C 28.023438 23.585938 28.476562 23.574219 28.925781 23.574219 C 29.414062 23.574219 29.890625 23.585938 30.378906 23.597656 L 30.851562 24.277344 Z M 31.328125 24.988281 "/>
<path style=" stroke:none;fill-rule:nonzero;fill:rgb(31.37255%,34.901962%,40.392157%);fill-opacity:1;" d="M 34.039062 22.078125 C 34.039062 23.171875 34.039062 24.226562 33.914062 24.988281 C 34.164062 24.980469 34.480469 24.949219 34.726562 24.949219 C 34.988281 24.949219 35.257812 24.980469 35.519531 24.988281 C 35.429688 24.46875 35.40625 23.777344 35.40625 22.824219 C 35.40625 22.179688 35.40625 21.074219 35.53125 20.601562 C 35.257812 20.617188 34.976562 20.640625 34.726562 20.640625 C 34.558594 20.640625 34.136719 20.613281 33.925781 20.601562 C 34.039062 21.21875 34.039062 21.675781 34.039062 22.078125 "/>
<path style=" stroke:none;fill-rule:nonzero;fill:rgb(31.37255%,34.901962%,40.392157%);fill-opacity:1;" d="M 40.765625 22.8125 C 41.792969 22.703125 42.734375 22.339844 42.734375 21.628906 C 42.734375 21.359375 42.550781 21.097656 42.214844 20.914062 C 41.726562 20.652344 41.171875 20.601562 40.4375 20.601562 C 40.175781 20.601562 38.863281 20.632812 38.570312 20.632812 C 37.992188 20.632812 37.699219 20.613281 37.441406 20.601562 C 37.519531 21.425781 37.519531 21.515625 37.519531 22.351562 C 37.519531 23.585938 37.507812 23.726562 37.417969 24.988281 C 37.667969 24.96875 37.9375 24.949219 38.195312 24.949219 C 38.480469 24.949219 38.730469 24.972656 38.957031 24.988281 C 38.957031 24.820312 38.910156 23.996094 38.910156 23.808594 L 38.910156 22.902344 L 39.183594 22.902344 C 39.792969 23.386719 40.492188 23.949219 41.070312 24.457031 C 41.238281 24.601562 41.488281 24.839844 41.660156 24.988281 C 42 24.960938 42.132812 24.949219 42.574219 24.949219 C 42.980469 24.949219 43.265625 24.96875 43.582031 24.988281 C 42.867188 24.480469 42.5625 24.257812 41.671875 23.546875 C 41.5 23.414062 41.25 23.203125 41.082031 23.070312 Z M 38.910156 20.945312 C 39.078125 20.9375 39.5 20.914062 39.714844 20.914062 C 40.085938 20.914062 40.460938 20.945312 40.765625 21.074219 C 41.160156 21.238281 41.238281 21.46875 41.238281 21.738281 C 41.238281 22.152344 40.820312 22.621094 39.691406 22.621094 C 39.398438 22.621094 39.125 22.609375 38.910156 22.601562 Z M 38.910156 20.945312 "/>
<path style=" stroke:none;fill-rule:nonzero;fill:rgb(31.37255%,34.901962%,40.392157%);fill-opacity:1;" d="M 46.65625 23.492188 C 46.125 22.601562 45.390625 21.355469 45.039062 20.601562 C 44.753906 20.625 44.507812 20.636719 44.246094 20.636719 C 43.976562 20.636719 43.589844 20.613281 43.363281 20.601562 C 43.828125 21.289062 44.222656 21.902344 44.53125 22.390625 C 45.050781 23.222656 45.390625 23.796875 45.796875 24.5 L 46.078125 24.988281 C 46.238281 24.96875 46.417969 24.949219 46.542969 24.949219 C 46.667969 24.949219 46.78125 24.960938 46.972656 24.988281 C 47.152344 24.65625 47.367188 24.246094 47.527344 23.984375 C 47.96875 23.253906 48.027344 23.152344 48.601562 22.242188 L 48.941406 21.714844 C 49.066406 21.917969 49.28125 22.242188 49.40625 22.449219 C 49.527344 22.644531 50.105469 23.625 50.242188 23.84375 C 50.421875 24.128906 50.46875 24.210938 50.886719 24.988281 C 50.988281 24.980469 51.203125 24.949219 51.375 24.949219 C 51.53125 24.949219 51.65625 24.96875 51.824219 24.988281 C 52.253906 24.226562 52.300781 24.148438 52.933594 23.125 C 53.554688 22.128906 53.941406 21.558594 54.617188 20.601562 C 54.449219 20.625 54.28125 20.636719 54.109375 20.636719 C 53.894531 20.636719 53.714844 20.621094 53.589844 20.601562 C 53.183594 21.429688 52.980469 21.835938 52.652344 22.382812 C 52.121094 23.277344 52.050781 23.382812 51.722656 23.867188 C 51.363281 23.316406 51.011719 22.761719 50.683594 22.199219 C 50.503906 21.890625 49.8125 20.613281 49.800781 20.601562 C 49.644531 20.621094 49.527344 20.636719 49.300781 20.636719 C 49.101562 20.636719 48.953125 20.613281 48.804688 20.601562 C 48.464844 21.378906 47.265625 23.261719 47.152344 23.433594 L 46.871094 23.847656 Z M 46.65625 23.492188 "/>
<path style=" stroke:none;fill-rule:nonzero;fill:rgb(31.37255%,34.901962%,40.392157%);fill-opacity:1;" d="M 58.070312 23.203125 C 57.71875 23.214844 57.378906 23.226562 57.027344 23.226562 C 56.632812 23.226562 56.246094 23.207031 55.851562 23.203125 L 57.003906 21.628906 Z M 59.34375 24.988281 C 59.550781 24.980469 59.867188 24.949219 60.183594 24.949219 C 60.5 24.949219 60.898438 24.980469 61.066406 24.988281 C 60.558594 24.367188 59.808594 23.398438 59.378906 22.84375 C 58.972656 22.308594 58.292969 21.414062 57.75 20.535156 C 57.628906 20.554688 57.515625 20.570312 57.390625 20.570312 C 57.253906 20.570312 57.140625 20.554688 57.015625 20.535156 C 56.746094 21.058594 56.089844 21.890625 54.945312 23.335938 L 53.632812 24.988281 C 53.792969 24.972656 53.949219 24.949219 54.144531 24.949219 C 54.324219 24.949219 54.539062 24.972656 54.6875 24.988281 C 54.867188 24.621094 55.230469 24.089844 55.589844 23.597656 C 56.042969 23.585938 56.496094 23.574219 56.949219 23.574219 C 57.433594 23.574219 57.910156 23.585938 58.394531 23.597656 L 58.871094 24.277344 Z M 59.34375 24.988281 "/>
<path style=" stroke:none;fill-rule:nonzero;fill:rgb(31.37255%,34.901962%,40.392157%);fill-opacity:1;" d="M 64.09375 23.273438 C 64.09375 23.214844 64.160156 23.144531 64.242188 23.066406 C 64.714844 22.609375 65.15625 22.128906 65.667969 21.667969 C 65.835938 21.515625 66.660156 20.773438 66.832031 20.601562 C 66.707031 20.625 66.582031 20.640625 66.355469 20.640625 C 66.105469 20.640625 65.878906 20.617188 65.699219 20.601562 C 64.886719 21.609375 64.703125 21.828125 63.742188 22.761719 C 62.78125 21.808594 62.351562 21.304688 61.765625 20.601562 C 61.4375 20.632812 61.105469 20.640625 60.835938 20.640625 C 60.585938 20.640625 60.328125 20.625 59.910156 20.601562 C 60.496094 21.15625 61.460938 22.039062 62.035156 22.601562 L 62.703125 23.253906 C 62.703125 23.652344 62.667969 24.488281 62.636719 24.988281 C 62.847656 24.972656 63.167969 24.949219 63.390625 24.949219 C 63.652344 24.949219 63.914062 24.972656 64.175781 24.988281 C 64.128906 24.390625 64.09375 24.046875 64.09375 23.507812 Z M 64.09375 23.273438 "/>
<path style=" stroke:none;fill-rule:nonzero;fill:rgb(31.37255%,34.901962%,40.392157%);fill-opacity:1;" d="M 67.484375 24.027344 C 67.429688 24.335938 67.414062 24.417969 67.222656 24.75 C 67.632812 24.863281 68.367188 25.078125 69.339844 25.078125 C 71.410156 25.078125 72.210938 24.328125 72.210938 23.675781 C 72.210938 23.496094 72.132812 23.117188 71.65625 22.832031 C 71.328125 22.625 70.988281 22.558594 70.121094 22.363281 C 69.125 22.148438 68.546875 22.019531 68.546875 21.550781 C 68.546875 21.175781 68.988281 20.863281 69.882812 20.863281 C 70.59375 20.863281 71.195312 21.054688 71.363281 21.417969 L 71.523438 21.417969 C 71.625 21.175781 71.648438 21.125 71.875 20.8125 C 71.316406 20.671875 70.820312 20.550781 69.996094 20.550781 C 67.945312 20.550781 67.359375 21.265625 67.359375 21.828125 C 67.359375 22.359375 67.6875 22.683594 68.785156 22.960938 C 69.101562 23.035156 69.632812 23.152344 69.949219 23.226562 C 70.164062 23.277344 70.878906 23.457031 70.878906 23.964844 C 70.878906 24.425781 70.289062 24.761719 69.394531 24.761719 C 68.726562 24.761719 68.160156 24.667969 67.640625 24.027344 Z M 67.484375 24.027344 "/>
<path style=" stroke:none;fill-rule:nonzero;fill:rgb(36.078432%,2.352941%,19.607843%);fill-opacity:1;" d="M 4.648438 12.210938 C 4.648438 7.375 9.230469 6.070312 12.691406 6.070312 C 18.253906 6.070312 20.664062 8.679688 20.664062 11.460938 C 20.664062 13.054688 20.324219 14.550781 18.933594 15.757812 C 17.542969 16.96875 15.234375 17.695312 12.722656 17.695312 C 6.449219 17.695312 4.648438 14.320312 4.648438 12.210938 M 21.546875 22.089844 C 22.566406 21.6875 24.160156 21.1875 25.3125 20.902344 L 17.644531 18.214844 C 22.359375 17.273438 25.3125 14.894531 25.3125 11.652344 C 25.3125 7.050781 19.105469 5.09375 12.757812 5.09375 C 5.90625 5.09375 0 7.242188 0 12.113281 C 0 13.148438 0.40625 15.105469 3.257812 16.738281 C 6.210938 18.425781 9.703125 18.675781 12.65625 18.675781 C 13.03125 18.675781 13.402344 18.675781 13.777344 18.65625 Z M 21.546875 22.089844 "/>
<path style=" stroke:none;fill-rule:nonzero;fill:rgb(36.078432%,2.352941%,19.607843%);fill-opacity:1;" d="M 41.144531 13.054688 C 40.089844 13.09375 39.074219 13.132812 38.019531 13.132812 C 36.832031 13.132812 35.679688 13.074219 34.492188 13.054688 L 37.953125 8.335938 Z M 44.976562 18.40625 C 45.585938 18.386719 46.539062 18.292969 47.488281 18.292969 C 48.441406 18.292969 49.625 18.386719 50.136719 18.40625 C 48.609375 16.546875 46.367188 13.648438 45.078125 11.980469 C 43.855469 10.367188 41.820312 7.683594 40.191406 5.054688 C 39.820312 5.113281 39.480469 5.148438 39.105469 5.148438 C 38.699219 5.148438 38.359375 5.113281 37.988281 5.054688 C 37.171875 6.628906 35.203125 9.121094 31.777344 13.457031 L 27.839844 18.40625 C 28.316406 18.367188 28.792969 18.292969 29.367188 18.292969 C 29.910156 18.292969 30.554688 18.367188 30.996094 18.40625 C 31.539062 17.3125 32.628906 15.71875 33.710938 14.242188 C 35.066406 14.207031 36.425781 14.167969 37.78125 14.167969 C 39.242188 14.167969 40.667969 14.207031 42.128906 14.242188 L 43.550781 16.277344 Z M 44.976562 18.40625 "/>
<path style=" stroke:none;fill-rule:nonzero;fill:rgb(36.078432%,2.352941%,19.607843%);fill-opacity:1;" d="M 60.035156 8.679688 C 60.035156 7.949219 60.066406 7.222656 60.101562 6.53125 C 62.441406 6.53125 64.851562 6.550781 66.855469 6.664062 C 66.753906 6.359375 66.683594 6.1875 66.683594 5.976562 C 66.683594 5.820312 66.753906 5.570312 66.855469 5.246094 C 63.597656 5.339844 60.609375 5.359375 57.792969 5.359375 C 55.179688 5.359375 51.414062 5.339844 48.734375 5.246094 C 48.835938 5.476562 48.902344 5.726562 48.902344 5.957031 C 48.902344 6.1875 48.835938 6.433594 48.734375 6.664062 C 50.464844 6.570312 53.722656 6.53125 54.027344 6.53125 L 55.722656 6.53125 C 55.757812 7.28125 55.792969 7.949219 55.792969 8.660156 L 55.828125 14.011719 C 55.828125 15.472656 55.625 16.949219 55.488281 18.40625 C 56.707031 18.332031 57.21875 18.292969 57.792969 18.292969 C 58.203125 18.292969 59.289062 18.347656 60.273438 18.40625 C 60.167969 17.871094 60.035156 17.234375 60.035156 15.777344 Z M 60.035156 8.679688 "/>
<path style=" stroke:none;fill-rule:nonzero;fill:rgb(36.078432%,2.352941%,19.607843%);fill-opacity:1;" d="M 78.921875 13.054688 C 77.871094 13.09375 76.851562 13.132812 75.800781 13.132812 C 74.609375 13.132812 73.457031 13.074219 72.269531 13.054688 L 75.730469 8.335938 Z M 82.753906 18.40625 C 83.367188 18.386719 84.316406 18.292969 85.265625 18.292969 C 86.214844 18.292969 87.402344 18.386719 87.914062 18.40625 C 86.386719 16.546875 84.148438 13.648438 82.859375 11.980469 C 81.636719 10.367188 79.597656 7.683594 77.972656 5.054688 C 77.597656 5.113281 77.257812 5.148438 76.886719 5.148438 C 76.476562 5.148438 76.136719 5.113281 75.765625 5.054688 C 74.953125 6.628906 72.984375 9.121094 69.554688 13.457031 L 65.621094 18.40625 C 66.09375 18.367188 66.570312 18.292969 67.148438 18.292969 C 67.6875 18.292969 68.332031 18.367188 68.777344 18.40625 C 69.320312 17.3125 70.402344 15.71875 71.488281 14.242188 C 72.847656 14.207031 74.203125 14.167969 75.5625 14.167969 C 77.023438 14.167969 78.445312 14.207031 79.90625 14.242188 L 81.332031 16.277344 Z M 82.753906 18.40625 "/>
<path style=" stroke:none;fill-rule:nonzero;fill:rgb(36.078432%,2.352941%,19.607843%);fill-opacity:1;" d="M 101.578125 11.882812 C 104.667969 11.558594 107.484375 10.464844 107.484375 8.335938 C 107.484375 7.527344 106.941406 6.742188 105.921875 6.1875 C 104.464844 5.398438 102.800781 5.246094 100.59375 5.246094 C 99.8125 5.246094 95.878906 5.339844 94.996094 5.339844 C 93.265625 5.339844 92.382812 5.285156 91.601562 5.246094 C 91.839844 7.722656 91.839844 7.988281 91.839844 10.5 C 91.839844 14.207031 91.804688 14.625 91.535156 18.40625 C 92.28125 18.347656 93.09375 18.292969 93.875 18.292969 C 94.722656 18.292969 95.46875 18.367188 96.148438 18.40625 C 96.148438 17.90625 96.015625 15.433594 96.015625 14.875 L 96.015625 12.152344 L 96.828125 12.152344 C 98.660156 13.609375 100.765625 15.296875 102.496094 16.816406 C 103.003906 17.257812 103.75 17.964844 104.257812 18.40625 C 105.277344 18.332031 105.683594 18.292969 107.007812 18.292969 C 108.230469 18.292969 109.078125 18.347656 110.027344 18.40625 C 107.890625 16.890625 106.976562 16.21875 104.292969 14.089844 C 103.785156 13.6875 103.039062 13.054688 102.527344 12.652344 Z M 96.015625 6.28125 C 96.523438 6.261719 97.777344 6.1875 98.421875 6.1875 C 99.542969 6.1875 100.660156 6.28125 101.578125 6.664062 C 102.765625 7.164062 103.003906 7.855469 103.003906 8.660156 C 103.003906 9.90625 101.75 11.308594 98.355469 11.308594 C 97.472656 11.308594 96.660156 11.269531 96.015625 11.25 Z M 96.015625 6.28125 "/>
<path style=" stroke:none;fill-rule:nonzero;fill:rgb(45.490196%,49.803922%,54.11765%);fill-opacity:1;" d="M 152.304688 11.921875 C 152.304688 12.042969 149.230469 12.160156 144.847656 12.257812 C 144.074219 12.007812 143.484375 11.757812 143.054688 11.542969 C 148.371094 11.652344 152.304688 11.78125 152.304688 11.921875 "/>
<path style=" stroke:none;fill-rule:nonzero;fill:rgb(45.490196%,49.803922%,54.11765%);fill-opacity:1;" d="M 149.152344 7.734375 C 149.152344 7.839844 146.578125 7.933594 142.898438 8.019531 C 143.425781 7.84375 143.96875 7.667969 144.539062 7.492188 C 147.320312 7.566406 149.152344 7.648438 149.152344 7.734375 "/>
<path style=" stroke:none;fill-rule:nonzero;fill:rgb(45.490196%,49.803922%,54.11765%);fill-opacity:1;" d="M 121.730469 16.738281 C 120.027344 16.75 118.53125 16.753906 117.363281 16.753906 C 115.683594 16.753906 114.324219 16.464844 114.324219 16.101562 C 114.324219 15.738281 115.683594 15.445312 117.363281 15.445312 C 118.851562 15.445312 120.867188 15.457031 123.179688 15.472656 C 122.285156 16.203125 121.859375 16.640625 121.820312 16.667969 C 121.792969 16.6875 121.761719 16.714844 121.730469 16.738281 "/>
<path style=" stroke:none;fill-rule:nonzero;fill:rgb(45.490196%,49.803922%,54.11765%);fill-opacity:1;" d="M 122.648438 17.617188 C 123.207031 18 123.746094 18.324219 124.46875 18.675781 C 124.46875 18.675781 124.742188 18.894531 125.566406 18.707031 C 126.40625 18.511719 127.117188 18.25 127.921875 17.640625 C 130.265625 17.664062 132.75 17.691406 135.195312 17.722656 C 135.398438 17.890625 135.804688 18.234375 136.308594 18.65625 C 129.488281 18.757812 122.089844 18.816406 118.296875 18.816406 C 116.71875 18.816406 115.4375 18.539062 115.4375 18.199219 C 115.4375 17.859375 116.71875 17.582031 118.296875 17.582031 C 119.453125 17.582031 120.9375 17.585938 122.640625 17.597656 C 122.640625 17.605469 122.648438 17.617188 122.648438 17.617188 "/>
<path style=" stroke:none;fill-rule:nonzero;fill:rgb(45.490196%,49.803922%,54.11765%);fill-opacity:1;" d="M 120.007812 20.832031 C 118.609375 20.832031 117.472656 20.589844 117.472656 20.289062 C 117.472656 19.984375 118.609375 19.742188 120.007812 19.742188 C 123.71875 19.742188 131.316406 19.804688 137.828125 19.910156 C 138.140625 20.164062 138.453125 20.417969 138.753906 20.648438 C 132.050781 20.761719 123.890625 20.832031 120.007812 20.832031 "/>
<path style=" stroke:none;fill-rule:nonzero;fill:rgb(45.490196%,49.803922%,54.11765%);fill-opacity:1;" d="M 141.628906 22.582031 C 136.164062 22.714844 126.761719 22.808594 122.855469 22.808594 C 121.757812 22.808594 120.863281 22.613281 120.863281 22.378906 C 120.863281 22.140625 121.757812 21.949219 122.855469 21.949219 C 126.59375 21.949219 135.367188 22.03125 140.902344 22.15625 C 141.152344 22.308594 141.398438 22.453125 141.628906 22.582031 "/>
<path style=" stroke:none;fill-rule:nonzero;fill:rgb(45.490196%,49.803922%,54.11765%);fill-opacity:1;" d="M 127.367188 23.738281 C 130.59375 23.738281 140.410156 23.878906 140.410156 24.042969 C 140.410156 24.210938 130.589844 24.347656 127.367188 24.347656 C 126.738281 24.347656 126.230469 24.210938 126.230469 24.042969 C 126.230469 23.878906 126.738281 23.738281 127.367188 23.738281 "/>
<path style=" stroke:none;fill-rule:nonzero;fill:rgb(45.490196%,49.803922%,54.11765%);fill-opacity:1;" d="M 127.402344 12.515625 C 123.34375 12.554688 119.707031 12.574219 117.363281 12.574219 C 115.683594 12.574219 114.324219 12.28125 114.324219 11.921875 C 114.324219 11.558594 115.683594 11.265625 117.363281 11.265625 C 120.082031 11.265625 124.550781 11.292969 129.394531 11.347656 C 128.675781 11.75 128.011719 12.140625 127.402344 12.515625 "/>
<path style=" stroke:none;fill-rule:nonzero;fill:rgb(45.490196%,49.803922%,54.11765%);fill-opacity:1;" d="M 147.316406 9.585938 C 149.695312 9.660156 151.191406 9.742188 151.191406 9.824219 C 151.191406 9.914062 149.378906 10.003906 146.574219 10.082031 C 147.175781 9.824219 147.304688 9.605469 147.316406 9.585938 "/>
<path style=" stroke:none;fill-rule:nonzero;fill:rgb(45.490196%,49.803922%,54.11765%);fill-opacity:1;" d="M 118.296875 10.4375 C 116.714844 10.4375 115.433594 10.164062 115.433594 9.824219 C 115.433594 9.484375 116.714844 9.207031 118.296875 9.207031 C 121.539062 9.207031 127.417969 9.25 133.316406 9.324219 C 132.589844 9.671875 131.90625 10.011719 131.257812 10.347656 C 126.082031 10.40625 121.160156 10.4375 118.296875 10.4375 "/>
<path style=" stroke:none;fill-rule:nonzero;fill:rgb(45.490196%,49.803922%,54.11765%);fill-opacity:1;" d="M 135.921875 8.140625 C 129.890625 8.226562 123.359375 8.28125 120.007812 8.28125 C 118.605469 8.28125 117.472656 8.039062 117.472656 7.734375 C 117.472656 7.433594 118.605469 7.1875 120.007812 7.1875 C 123.707031 7.1875 131.289062 7.253906 137.792969 7.359375 C 137.46875 7.492188 137.140625 7.625 136.8125 7.765625 C 136.507812 7.890625 136.214844 8.015625 135.921875 8.140625 "/>
<path style=" stroke:none;fill-rule:nonzero;fill:rgb(45.490196%,49.803922%,54.11765%);fill-opacity:1;" d="M 122.855469 6.074219 C 121.757812 6.074219 120.863281 5.882812 120.863281 5.644531 C 120.863281 5.40625 121.757812 5.214844 122.855469 5.214844 C 127.003906 5.214844 137.347656 5.316406 142.597656 5.464844 C 142.265625 5.589844 141.929688 5.71875 141.589844 5.847656 C 136.117188 5.980469 126.753906 6.074219 122.855469 6.074219 "/>
<path style=" stroke:none;fill-rule:nonzero;fill:rgb(45.490196%,49.803922%,54.11765%);fill-opacity:1;" d="M 117.050781 14.675781 C 115.339844 14.675781 113.953125 14.378906 113.953125 14.011719 C 113.953125 13.644531 115.339844 13.34375 117.050781 13.34375 C 119.195312 13.34375 122.402344 13.363281 126.027344 13.394531 C 125.347656 13.847656 124.753906 14.265625 124.246094 14.644531 C 121.359375 14.664062 118.835938 14.675781 117.050781 14.675781 "/>
<path style=" stroke:none;fill-rule:nonzero;fill:rgb(45.490196%,49.803922%,54.11765%);fill-opacity:1;" d="M 126.230469 3.976562 C 126.230469 3.808594 126.738281 3.671875 127.367188 3.671875 C 130.589844 3.671875 140.410156 3.808594 140.410156 3.976562 C 140.410156 4.144531 130.59375 4.28125 127.367188 4.28125 C 126.738281 4.28125 126.230469 4.144531 126.230469 3.976562 "/>
<path style=" stroke:none;fill-rule:nonzero;fill:rgb(36.078432%,2.352941%,19.607843%);fill-opacity:1;" d="M 152.625 13.515625 C 152.648438 13.851562 152.644531 14.179688 152.613281 14.503906 C 146.902344 14.628906 141.484375 14.824219 141.484375 15.042969 C 141.484375 15.257812 146.78125 15.453125 152.429688 15.578125 C 152.328125 15.949219 152.199219 16.308594 152.042969 16.664062 C 146.476562 16.792969 141.3125 16.980469 141.3125 17.195312 C 141.3125 17.402344 146.136719 17.585938 151.476562 17.714844 C 151.230469 18.101562 150.953125 18.472656 150.640625 18.832031 C 146.054688 18.957031 142.265625 19.125 142.265625 19.304688 C 142.265625 19.476562 145.578125 19.632812 149.75 19.753906 C 149.515625 19.96875 149.273438 20.179688 149.015625 20.378906 C 148.746094 20.597656 148.449219 20.8125 148.136719 21.023438 C 145.527344 21.136719 143.734375 21.265625 143.734375 21.402344 C 143.734375 21.519531 145.019531 21.628906 146.996094 21.726562 C 145.917969 22.328125 144.640625 22.894531 143.140625 23.386719 C 143.140625 23.386719 141.371094 22.523438 139.910156 21.515625 C 138.605469 20.621094 135.84375 18.253906 135.195312 17.726562 C 134.542969 17.195312 134.117188 17.039062 133.355469 17.195312 C 132.335938 17.398438 131.148438 17.5 130.785156 17.5 C 130.421875 17.5 130.21875 17.421875 130.832031 17.285156 C 131.441406 17.144531 133.847656 16.503906 135.035156 15.175781 C 136.367188 13.679688 135.195312 11.613281 135.195312 11.613281 C 134.746094 12.714844 133.730469 13.128906 133.730469 13.128906 C 134.058594 12.101562 133.703125 11.175781 132.804688 10.523438 L 132.308594 11.820312 C 132.308594 11.820312 131.996094 11.8125 131.222656 12.179688 C 130.449219 12.546875 130.234375 13.082031 130.234375 13.082031 C 130.84375 13.222656 131.574219 12.875 131.574219 12.875 C 130.640625 14.851562 129.300781 16.460938 128.324219 17.3125 C 127.347656 18.160156 126.542969 18.484375 125.566406 18.707031 C 124.742188 18.894531 124.46875 18.675781 124.46875 18.675781 C 123.75 18.324219 123.210938 18 122.648438 17.617188 C 122.648438 17.617188 122.601562 17.570312 122.753906 17.574219 C 123.15625 17.578125 123.871094 17.1875 124.027344 17.027344 C 124.207031 16.839844 124.1875 16.699219 124.097656 16.691406 C 124.007812 16.683594 123.855469 16.828125 123.082031 17.105469 C 122.308594 17.382812 121.957031 17.191406 121.699219 17.035156 C 121.5 16.914062 121.695312 16.761719 121.820312 16.667969 C 121.9375 16.582031 126.015625 12.28125 136.8125 7.765625 C 150.957031 1.84375 159.988281 0.242188 160.507812 0.128906 C 160.847656 0.0507812 161.40625 -0.046875 161.53125 0.0273438 C 161.671875 0.109375 161.742188 0.175781 161.722656 0.273438 C 161.703125 0.367188 161.613281 0.417969 160.960938 0.582031 C 155.53125 1.933594 149.191406 4.1875 145.589844 5.5 C 141.160156 6.71875 136.933594 8.460938 136.777344 8.503906 C 136.4375 8.625 136.6875 8.796875 136.894531 8.722656 C 144.375 5.910156 153.144531 3.996094 162.832031 2.425781 C 163.296875 2.351562 163.550781 2.351562 163.625 2.410156 C 163.714844 2.472656 163.75 2.546875 163.765625 2.628906 C 163.777344 2.726562 163.628906 2.78125 163.230469 2.867188 C 152.824219 5.054688 145.148438 7.085938 140.214844 8.964844 C 140.214844 8.964844 139.703125 9.136719 139.699219 9.339844 C 139.695312 9.417969 139.972656 9.425781 139.972656 9.425781 C 142.441406 9.449219 145.746094 9.53125 147.316406 9.585938 C 147.316406 9.585938 147.089844 10.035156 145.585938 10.394531 C 144.425781 10.675781 143.351562 10.632812 142.285156 10.636719 C 142.050781 10.632812 141.847656 10.769531 142.039062 10.914062 C 142.132812 10.984375 144.398438 13.046875 152.625 13.515625 "/>
<path style=" stroke:none;fill-rule:nonzero;fill:rgb(36.078432%,2.352941%,19.607843%);fill-opacity:1;" d="M 77.191406 24.296875 L 75.796875 24.296875 C 75.796875 24.296875 75.609375 23.808594 76.113281 23.625 C 76.621094 23.4375 77.191406 23.292969 77.191406 23.292969 Z M 83.808594 22.480469 C 83.808594 22.480469 82.960938 22.753906 82.425781 23.023438 C 81.890625 23.292969 82.535156 23.394531 82.535156 23.394531 L 82.535156 24.296875 L 78.488281 24.296875 L 78.488281 21.140625 C 78.488281 21.140625 77.011719 21.90625 76.875 22.007812 C 76.730469 22.117188 77.222656 22.214844 77.222656 22.214844 L 77.140625 22.515625 C 77.140625 22.515625 76.554688 22.6875 75.839844 22.960938 C 75.128906 23.230469 74.605469 23.574219 74.605469 23.808594 C 74.605469 24.050781 74.425781 24.984375 74.425781 24.984375 L 83.808594 24.984375 Z M 75.429688 21.324219 C 75.890625 21.324219 76.21875 21.222656 76.21875 21.015625 C 76.21875 20.804688 76 20.660156 75.429688 20.660156 C 74.921875 20.660156 74.785156 20.785156 74.785156 21.015625 C 74.785156 21.246094 74.960938 21.324219 75.429688 21.324219 M 77.15625 21.324219 C 77.621094 21.324219 77.9375 21.222656 77.9375 21.015625 C 77.9375 20.804688 77.722656 20.660156 77.15625 20.660156 C 76.644531 20.660156 76.511719 20.785156 76.511719 21.015625 C 76.511719 21.246094 76.6875 21.324219 77.15625 21.324219 M 79.769531 25.257812 C 79.265625 25.257812 79.125 25.378906 79.125 25.609375 C 79.125 25.835938 79.304688 25.921875 79.769531 25.921875 C 80.230469 25.921875 80.558594 25.816406 80.558594 25.609375 C 80.558594 25.402344 80.34375 25.257812 79.769531 25.257812 M 81.5625 25.257812 C 81.058594 25.257812 80.917969 25.378906 80.917969 25.609375 C 80.917969 25.835938 81.101562 25.921875 81.5625 25.921875 C 82.03125 25.921875 82.351562 25.816406 82.351562 25.609375 C 82.351562 25.402344 82.140625 25.257812 81.5625 25.257812 M 101.777344 21.261719 C 102.246094 21.261719 102.570312 21.164062 102.570312 20.953125 C 102.570312 20.746094 102.355469 20.601562 101.777344 20.601562 C 101.273438 20.601562 101.136719 20.726562 101.136719 20.953125 C 101.136719 21.183594 101.316406 21.261719 101.777344 21.261719 M 103.570312 21.261719 C 104.03125 21.261719 104.355469 21.164062 104.355469 20.953125 C 104.355469 20.746094 104.140625 20.601562 103.570312 20.601562 C 103.0625 20.601562 102.929688 20.726562 102.929688 20.953125 C 102.929688 21.183594 103.101562 21.261719 103.570312 21.261719 M 108.519531 21.347656 C 108.265625 21.472656 108.339844 21.621094 108.660156 21.597656 L 108.660156 24.992188 L 109.988281 24.992188 L 109.988281 20.769531 C 109.988281 20.769531 108.765625 21.226562 108.519531 21.347656 M 103.175781 23.25 L 102.316406 23.25 C 102.316406 22.984375 103.175781 22.835938 103.175781 22.835938 Z M 97.511719 23.808594 C 97.511719 23.933594 97.503906 24.132812 97.492188 24.296875 L 89.984375 24.296875 L 89.984375 23.550781 C 90.179688 23.261719 90.507812 23.230469 91.019531 23.230469 L 96.511719 23.230469 C 97.695312 23.230469 97.511719 23.582031 97.511719 23.808594 M 106.296875 21.597656 L 106.296875 24.296875 L 104.507812 24.296875 L 104.507812 21.84375 C 104.507812 21.84375 104.140625 21.921875 103.640625 22.050781 C 103.144531 22.175781 101.34375 22.589844 101.34375 23.148438 L 101.34375 23.792969 L 103.175781 23.792969 L 103.175781 24.296875 L 98.832031 24.296875 C 98.835938 24.175781 98.839844 24.003906 98.839844 23.746094 C 98.839844 22.941406 97.628906 22.503906 96.546875 22.503906 L 91.523438 22.503906 C 90.644531 22.503906 90.222656 22.625 89.984375 22.761719 L 89.984375 20.683594 C 89.984375 20.683594 89.199219 20.996094 88.621094 21.246094 C 88.046875 21.492188 88.621094 21.660156 88.621094 21.660156 L 88.621094 24.296875 L 86.976562 24.296875 L 86.941406 22.03125 C 86.941406 22.03125 85.796875 22.503906 85.46875 22.648438 C 85.148438 22.792969 85.324219 22.921875 85.683594 22.921875 C 85.683594 22.921875 85.617188 24.59375 85.617188 24.984375 C 85.617188 25.382812 85.035156 25.835938 83.816406 25.628906 C 83.816406 25.628906 83.429688 25.671875 83.753906 25.835938 C 84.074219 26.003906 84.460938 26.128906 84.894531 26.128906 C 85.324219 26.128906 86.90625 25.960938 86.90625 24.984375 L 107.621094 24.984375 L 107.621094 20.765625 C 107.621094 20.765625 106.398438 21.222656 106.148438 21.34375 C 105.894531 21.46875 105.96875 21.617188 106.296875 21.597656 "/>
</g>
</svg>
