<svg version="1.1" id="Layer_1" xmlns:x="ns_extend;" xmlns:i="ns_ai;" xmlns:graph="ns_graphs;" xmlns="http://www.w3.org/2000/svg" xmlns:xlink="http://www.w3.org/1999/xlink" x="0px" y="0px" viewBox="0 0 68.4 50" style="enable-background:new 0 0 68.4 50;" xml:space="preserve">
 <style type="text/css">
  .st0{fill:#08502A;}
 </style>
 <metadata>
  <sfw xmlns="ns_sfw;">
   <slices>
   </slices>
   <sliceSourceBounds bottomLeftOrigin="true" height="50" width="68.4" x="205.3" y="-106">
   </sliceSourceBounds>
  </sfw>
 </metadata>
 <path class="st0" d="M37.1,31.5c-0.1,0-0.1,0.1-0.2,0.1c2,1.2,4,2.4,6.1,3.6c1.2,0.7,2.4,1.4,3.7,2.1l-1.8,2l-2-1.3
	c-2.3-1.5-4.7-3-7.1-4.4L35.2,50l9.7-10.7c0.1,0.1,2.4,1.6,3.9,1.9c4.2,0.9,5.4,0.2,8.2-0.4c-3.1-0.2-5.4-0.5-9.2-2.8
	c-0.6-0.4-1-0.7-1.1-0.7l11.5-12.7c-3.3,0.1-6.7,0.4-9.8,1.6C44.5,27.4,40.8,29.4,37.1,31.5z M37.4,17.3c0,0,1.1-4.1,0-8.2
	c0.9,0.8,2,1.9,2.9,3.3c1.2,2.1,1.5,3.6,1.5,3.6s0.5-2.4-0.3-4.6c-0.3-0.7-0.9-2.6-2.2-3.8c1,0.5,2.2,1.2,3.4,2.2
	c2.1,1.8,3.3,3.3,3.3,3.3s-0.4-2.7-1.9-4.6c-1.7-2.2-4.1-3.1-5.8-3.5c1.1-0.1,2.3-0.2,3.6,0.2c2.7,0.6,4.5,2,4.5,2s-1.6-2.5-4.3-3.7
	c-2-0.9-3.9-0.9-5.4-0.7c0.1-0.2,0.3-0.5,0.5-0.6c0.5-0.4,1-0.7,1-0.7s-1.1-0.3-2.1,0.1c-0.5,0.2-0.9,0.5-1.2,0.7
	c0-0.3-0.1-0.6-0.2-0.9c-0.1-0.5-0.7-1.5-0.7-1.5c0,0.1-0.6,1.1-0.7,1.5c-0.1,0.3-0.1,0.6-0.2,0.9c-0.3-0.3-0.7-0.5-1.2-0.7
	c-1-0.4-2.1-0.1-2.1-0.1s0.5,0.2,1,0.7c0.2,0.2,0.4,0.4,0.5,0.6c-1.5-0.2-3.4-0.2-5.4,0.7c-2.6,1.2-4.3,3.7-4.3,3.7s1.8-1.4,4.5-2
	c1.3-0.3,2.6-0.3,3.6-0.2c-1.7,0.4-4.1,1.2-5.8,3.5c-1.5,1.9-1.9,4.6-1.9,4.6s1.2-1.6,3.3-3.3c1.2-1,2.4-1.7,3.4-2.2
	c-1.3,1.2-1.9,3.1-2.2,3.8c-0.8,2.2-0.3,4.6-0.3,4.6s0.3-1.6,1.5-3.6c0.9-1.5,2-2.6,2.9-3.3c-1.1,4.1,0,8.2,0,8.2s0.7-3.1,1.7-5.8
	c0.4-1.1,1-2,1.4-2.6c0.5,0.6,1,1.5,1.4,2.6C36.7,14.2,37.4,17.3,37.4,17.3z M68.1,12.9l-31.8,6.4l-0.4,10.4c4.2-2,8.5-4.1,13.1-5.1
	c3.1-0.7,6.2-0.6,9.3-0.1l10.1-11.1C68.5,13.2,68.3,12.9,68.1,12.9z M19.4,24.6c4.6,1,8.9,3,13.1,5.1l-0.4-10.4L0.3,12.9
	c-0.3-0.1-0.4,0.3-0.2,0.4l10.1,11.1C13.2,24,16.3,23.9,19.4,24.6z M25.5,38l-2,1.3l-1.8-2c1.2-0.7,2.5-1.4,3.7-2.1
	c2-1.2,4-2.4,6.1-3.6c-0.1,0-0.1-0.1-0.2-0.1c-3.6-2-7.3-4-11.3-5.4c-3.1-1.2-6.5-1.5-9.8-1.6l11.5,12.7c-0.1,0-0.4,0.3-1.1,0.7
	c-3.8,2.3-6.1,2.6-9.2,2.8c2.9,0.6,4.1,1.4,8.2,0.4c1.5-0.3,3.8-1.8,3.9-1.9L33.2,50l-0.6-16.4C30.2,35,27.9,36.5,25.5,38z">
 </path>
</svg>