<?xml version="1.0" encoding="UTF-8"?>
<svg version="1.1" xmlns="http://www.w3.org/2000/svg" width="12" height="12">
<path d="M0 0 C3.96 0 7.92 0 12 0 C12 3.96 12 7.92 12 12 C8.04 12 4.08 12 0 12 C0 8.04 0 4.08 0 0 Z " fill="#3D986A" transform="translate(0,0)"/>
<path d="M0 0 C3.96 0 7.92 0 12 0 C12 3.96 12 7.92 12 12 C8.04 12 4.08 12 0 12 C0 8.04 0 4.08 0 0 Z M1 3 C0.66666667 6 0.66666667 6 1 9 C2.88500271 11.31563087 2.88500271 11.31563087 6 11.25 C9.11499729 11.31563087 9.11499729 11.31563087 11 9 C11.33333333 6 11.33333333 6 11 3 C9.11499729 0.68436913 9.11499729 0.68436913 6 0.75 C2.88500271 0.68436913 2.88500271 0.68436913 1 3 Z " fill="#DFE6E3" transform="translate(0,0)"/>
<path d="M0 0 C1.32 0.33 2.64 0.66 4 1 C3.34 1.66 2.68 2.32 2 3 C1.50670415 7.26472726 1.50670415 7.26472726 3.5 10.875 C3.995 11.24625 4.49 11.6175 5 12 C3.35 12 1.7 12 0 12 C0 8.04 0 4.08 0 0 Z " fill="#F9F7F8" transform="translate(0,0)"/>
<path d="M0 0 C0.33 1.32 0.66 2.64 1 4 C1.94875 3.95875 2.8975 3.9175 3.875 3.875 C7 4 7 4 9 6 C8 7 8 7 5.0625 7.1875 C2 7 2 7 0 5 C-0.125 2.375 -0.125 2.375 0 0 Z " fill="#035828" transform="translate(1,4)"/>
</svg>
